<svg width="25" height="20" viewBox="0 0 25 20" fill="none" xmlns="http://www.w3.org/2000/svg">
<path fill-rule="evenodd" clip-rule="evenodd" d="M9.44106 14.7234L3.25992 18.9403C2.06353 19.7564 0.441406 18.8993 0.441406 17.4515V1.88459C0.441406 0.435917 2.06325 -0.421736 3.25988 0.394632L14.6707 8.1781C15.7197 8.89367 15.7197 10.4418 14.6707 11.1556L10.6426 13.9037V17.4499C10.6426 17.933 11.1832 18.2185 11.5822 17.9463L22.9771 10.1643C23.3274 9.92469 23.3274 9.41008 22.9774 9.17134L11.5824 1.38926C11.1832 1.1169 10.6426 1.40236 10.6426 1.88543V2.45014C10.6426 2.78194 10.3736 3.0509 10.0418 3.0509C9.71002 3.0509 9.44106 2.78194 9.44106 2.45014V1.88543C9.44106 0.436704 11.0629 -0.419663 12.2598 0.396867L23.6548 8.17894C24.7036 8.89439 24.7036 10.4392 23.655 11.1563L12.2595 18.9387C11.0629 19.7551 9.44106 18.8987 9.44106 17.4499V14.7234ZM9.44106 13.2689L2.58278 17.9477C2.18398 18.2198 1.64293 17.9339 1.64293 17.4515V1.88459C1.64293 1.40115 2.18389 1.11507 2.58278 1.38722L13.9937 9.17068C14.3432 9.40912 14.3432 9.92517 13.9942 10.1626L10.6426 12.4492V10.2432C10.6426 9.91142 10.3736 9.64246 10.0418 9.64246C9.71002 9.64246 9.44106 9.91142 9.44106 10.2432V13.2689Z" fill="white"/>
</svg>
