<svg width="109" height="109" viewBox="0 0 109 109" fill="none" xmlns="http://www.w3.org/2000/svg">
<g filter="url(#filter0_d_67_2064)">
<circle cx="54.5" cy="54.0762" r="46" fill="#04044E"/>
<circle cx="54.5" cy="54.0762" r="45" stroke="url(#paint0_linear_67_2064)" stroke-width="2"/>
</g>
<g filter="url(#filter1_d_67_2064)">
<path d="M37.051 73.8501L38.0361 68.1503H36.4176C33.9547 68.1503 31.9141 66.1096 31.9141 63.6467C31.9141 61.1838 33.9547 59.1431 36.4176 59.1431H39.5842L41.3434 48.7286H38.8805C36.4176 48.7286 34.377 46.6879 34.377 44.225C34.377 41.7621 36.4176 39.7214 38.8805 39.7214H42.8915L44.0878 32.7549C44.4397 30.5031 46.3396 29.0254 48.5914 29.0254C51.3358 29.0254 53.5172 31.629 53.095 34.303L52.1802 39.7214H61.6799L62.8762 32.7549C63.228 30.5031 65.128 29.0254 67.3798 29.0254C70.1242 29.0254 72.3056 31.629 71.8834 34.303L70.9686 39.7214H72.5871C75.0499 39.7214 77.0906 41.7621 77.0906 44.225C77.0906 46.6879 75.0499 48.7286 72.5871 48.7286H69.4205L67.6613 59.1431H70.1242C72.5871 59.1431 74.6277 61.1838 74.6277 63.6467C74.6277 66.1096 72.5871 68.1503 70.1242 68.1503H66.1131L64.8465 75.3982C64.4947 77.5796 62.5947 79.1278 60.3429 79.1278C57.5986 79.1278 55.3468 76.5241 55.8393 73.8501L56.8245 68.1503H47.3248L46.0581 75.3982C45.7063 77.2982 44.0878 79.1278 41.5545 79.1278C38.8102 79.1278 36.5584 76.8056 37.051 73.8501ZM48.8729 59.1431H58.3726L60.1318 48.7286H50.6321L48.8729 59.1431Z" fill="white"/>
<path d="M48.5914 29.5254C51.0239 29.5254 52.9746 31.8491 52.6015 34.2225C52.6014 34.2233 52.6012 34.2242 52.6011 34.225L51.6872 39.6382L51.5887 40.2214H52.1802H61.6799H62.1014L62.1727 39.806L63.369 32.8395L63.369 32.8395L63.3702 32.8321C63.6807 30.8452 65.3519 29.5254 67.3798 29.5254C69.8123 29.5254 71.763 31.8492 71.3899 34.2225C71.3898 34.2233 71.3896 34.2242 71.3895 34.225L70.4756 39.6382L70.3771 40.2214H70.9686H72.5871C74.7738 40.2214 76.5906 42.0382 76.5906 44.225C76.5906 46.4117 74.7738 48.2286 72.5871 48.2286H69.4205H68.9978L68.9275 48.6453L67.1682 59.0598L67.0697 59.6431H67.6613H70.1242C72.3109 59.6431 74.1277 61.4599 74.1277 63.6467C74.1277 65.8334 72.3109 67.6503 70.1242 67.6503H66.1131H65.6929L65.6206 68.0642L64.354 75.3121L64.3539 75.3121L64.3529 75.3186C64.0424 77.2439 62.3636 78.6278 60.3429 78.6278C57.896 78.6278 55.8978 76.2929 56.3311 73.9407L56.3311 73.9407L56.332 73.9353L57.3172 68.2354L57.4183 67.6503H56.8245H47.3248H46.9046L46.8322 68.0642L45.5665 75.3072C45.5663 75.308 45.5662 75.3088 45.566 75.3096C45.2501 77.0096 43.8091 78.6278 41.5545 78.6278C39.0948 78.6278 37.1071 76.5598 37.5439 73.9337C37.544 73.9333 37.5441 73.9328 37.5442 73.9323L38.5288 68.2354L38.63 67.6503H38.0361H36.4176C34.2309 67.6503 32.4141 65.8334 32.4141 63.6467C32.4141 61.4599 34.2309 59.6431 36.4176 59.6431H39.5842H40.0069L40.0772 59.2264L41.8365 48.8118L41.935 48.2286H41.3434H38.8805C36.6938 48.2286 34.877 46.4117 34.877 44.225C34.877 42.0382 36.6938 40.2214 38.8805 40.2214H42.8915H43.313L43.3843 39.806L44.5806 32.8395L44.5807 32.8395L44.5818 32.8321C44.8923 30.8452 46.5635 29.5254 48.5914 29.5254ZM48.3799 59.0598L48.2813 59.6431H48.8729H58.3726H58.7952L58.8656 59.2264L60.6248 48.8118L60.7234 48.2286H60.1318H50.6321H50.2095L50.1391 48.6453L48.3799 59.0598Z" stroke="url(#paint1_linear_67_2064)"/>
</g>
<defs>
<filter id="filter0_d_67_2064" x="0.5" y="0.0761719" width="108" height="108" filterUnits="userSpaceOnUse" color-interpolation-filters="sRGB">
<feFlood flood-opacity="0" result="BackgroundImageFix"/>
<feColorMatrix in="SourceAlpha" type="matrix" values="0 0 0 0 0 0 0 0 0 0 0 0 0 0 0 0 0 0 127 0" result="hardAlpha"/>
<feOffset/>
<feGaussianBlur stdDeviation="4"/>
<feComposite in2="hardAlpha" operator="out"/>
<feColorMatrix type="matrix" values="0 0 0 0 0.294118 0 0 0 0 0.298039 0 0 0 0 1 0 0 0 1 0"/>
<feBlend mode="normal" in2="BackgroundImageFix" result="effect1_dropShadow_67_2064"/>
<feBlend mode="normal" in="SourceGraphic" in2="effect1_dropShadow_67_2064" result="shape"/>
</filter>
<filter id="filter1_d_67_2064" x="23.9141" y="21.0254" width="61.1758" height="66.1016" filterUnits="userSpaceOnUse" color-interpolation-filters="sRGB">
<feFlood flood-opacity="0" result="BackgroundImageFix"/>
<feColorMatrix in="SourceAlpha" type="matrix" values="0 0 0 0 0 0 0 0 0 0 0 0 0 0 0 0 0 0 127 0" result="hardAlpha"/>
<feOffset/>
<feGaussianBlur stdDeviation="4"/>
<feComposite in2="hardAlpha" operator="out"/>
<feColorMatrix type="matrix" values="0 0 0 0 0.294118 0 0 0 0 0.298039 0 0 0 0 1 0 0 0 1 0"/>
<feBlend mode="normal" in2="BackgroundImageFix" result="effect1_dropShadow_67_2064"/>
<feBlend mode="normal" in="SourceGraphic" in2="effect1_dropShadow_67_2064" result="shape"/>
</filter>
<linearGradient id="paint0_linear_67_2064" x1="8.5" y1="54.0762" x2="100.5" y2="54.0762" gradientUnits="userSpaceOnUse">
<stop stop-color="#7670FF"/>
<stop offset="1" stop-color="#5B42FF"/>
</linearGradient>
<linearGradient id="paint1_linear_67_2064" x1="31.9141" y1="54.0766" x2="77.0906" y2="54.0766" gradientUnits="userSpaceOnUse">
<stop stop-color="#7670FF"/>
<stop offset="1" stop-color="#5B42FF"/>
</linearGradient>
</defs>
</svg>
