<svg width="260" height="160" viewBox="0 0 260 160" fill="none" xmlns="http://www.w3.org/2000/svg">
<g filter="url(#filter0_bd_67_2218)">
<rect x="8.24609" y="8.98828" width="243.506" height="142.338" rx="16" fill="url(#paint0_linear_67_2218)" fill-opacity="0.17" shape-rendering="crispEdges"/>
<rect x="8.74609" y="9.48828" width="242.506" height="141.338" rx="15.5" stroke="url(#paint1_linear_67_2218)" shape-rendering="crispEdges"/>
</g>
<path d="M30.4765 36.7338C29.0485 36.7338 27.8585 36.2857 26.7665 35.4177C26.6405 35.3337 26.5565 35.1797 26.5565 34.9977C26.5565 34.6897 26.7945 34.4517 27.0885 34.4517C27.2285 34.4517 27.3545 34.5077 27.4245 34.5777C28.3485 35.3617 29.2725 35.7397 30.5185 35.7397C31.8345 35.7397 32.7025 35.0397 32.7025 34.0737V34.0457C32.7025 33.1357 32.2125 32.6177 30.1545 32.1837C27.9005 31.6937 26.8645 30.9657 26.8645 29.3557V29.3277C26.8645 27.7877 28.2225 26.6537 30.0845 26.6537C31.3725 26.6537 32.3105 26.9757 33.2065 27.6197C33.3185 27.7037 33.4445 27.8577 33.4445 28.0677C33.4445 28.3618 33.2065 28.5997 32.9125 28.5997C32.7865 28.5997 32.6885 28.5717 32.5905 28.5017C31.7645 27.8997 30.9665 27.6477 30.0565 27.6477C28.7825 27.6477 27.9705 28.3477 27.9705 29.2297V29.2577C27.9705 30.1817 28.4745 30.6997 30.6305 31.1617C32.8145 31.6377 33.8225 32.4357 33.8225 33.9337V33.9617C33.8225 35.6417 32.4225 36.7338 30.4765 36.7338ZM42.0915 29.8317V36.1177C42.0915 36.4117 41.8675 36.6638 41.5595 36.6638C41.2655 36.6638 41.0275 36.4257 41.0275 36.1177V35.3337C40.5375 36.1177 39.7955 36.7478 38.5495 36.7478C36.7995 36.7478 35.7775 35.5717 35.7775 33.8497V29.8317C35.7775 29.5238 36.0015 29.2857 36.3095 29.2857C36.6035 29.2857 36.8555 29.5238 36.8555 29.8317V33.5837C36.8555 34.9277 37.5835 35.7677 38.8575 35.7677C40.0895 35.7677 41.0275 34.8577 41.0275 33.4997V29.8317C41.0275 29.5238 41.2515 29.2857 41.5595 29.2857C41.8535 29.2857 42.0915 29.5238 42.0915 29.8317ZM44.5165 36.1177V29.8317C44.5165 29.5377 44.7545 29.2857 45.0485 29.2857C45.3565 29.2857 45.5945 29.5238 45.5945 29.8317V30.5737C46.0705 29.8597 46.7145 29.2018 47.9325 29.2018C49.1085 29.2018 49.8645 29.8317 50.2565 30.6437C50.7745 29.8457 51.5445 29.2018 52.8045 29.2018C54.4705 29.2018 55.4925 30.3217 55.4925 32.1137V36.1177C55.4925 36.4257 55.2545 36.6638 54.9605 36.6638C54.6525 36.6638 54.4145 36.4257 54.4145 36.1177V32.3657C54.4145 30.9657 53.7145 30.1817 52.5385 30.1817C51.4465 30.1817 50.5505 30.9937 50.5505 32.4217V36.1177C50.5505 36.4257 50.3125 36.6638 50.0045 36.6638C49.7105 36.6638 49.4725 36.4257 49.4725 36.1177V32.3377C49.4725 30.9797 48.7585 30.1817 47.6105 30.1817C46.4625 30.1817 45.5945 31.1337 45.5945 32.4637V36.1177C45.5945 36.4257 45.3705 36.6638 45.0625 36.6638C44.7545 36.6638 44.5165 36.4257 44.5165 36.1177ZM57.8329 36.1177V29.8317C57.8329 29.5377 58.0709 29.2857 58.3649 29.2857C58.6729 29.2857 58.9109 29.5238 58.9109 29.8317V30.5737C59.3869 29.8597 60.0309 29.2018 61.2489 29.2018C62.4249 29.2018 63.1809 29.8317 63.5729 30.6437C64.0909 29.8457 64.8609 29.2018 66.1209 29.2018C67.7869 29.2018 68.8089 30.3217 68.8089 32.1137V36.1177C68.8089 36.4257 68.5709 36.6638 68.2769 36.6638C67.9689 36.6638 67.7309 36.4257 67.7309 36.1177V32.3657C67.7309 30.9657 67.0309 30.1817 65.8549 30.1817C64.7629 30.1817 63.8669 30.9937 63.8669 32.4217V36.1177C63.8669 36.4257 63.6289 36.6638 63.3209 36.6638C63.0269 36.6638 62.7889 36.4257 62.7889 36.1177V32.3377C62.7889 30.9797 62.0749 30.1817 60.9269 30.1817C59.7789 30.1817 58.9109 31.1337 58.9109 32.4637V36.1177C58.9109 36.4257 58.6869 36.6638 58.3789 36.6638C58.0709 36.6638 57.8329 36.4257 57.8329 36.1177ZM73.3053 36.7478C71.9613 36.7478 70.6033 35.9777 70.6033 34.4937V34.4657C70.6033 32.9397 71.8633 32.1277 73.6973 32.1277C74.6213 32.1277 75.2793 32.2537 75.9233 32.4357V32.1837C75.9233 30.8817 75.1253 30.2097 73.7673 30.2097C73.0393 30.2097 72.4233 30.3777 71.8913 30.6157C71.8213 30.6437 71.7513 30.6577 71.6953 30.6577C71.4433 30.6577 71.2193 30.4477 71.2193 30.1957C71.2193 29.9717 71.3733 29.8037 71.5133 29.7477C72.2273 29.4397 72.9553 29.2577 73.8793 29.2577C74.9013 29.2577 75.6853 29.5238 76.2173 30.0557C76.7073 30.5457 76.9593 31.2457 76.9593 32.1697V36.1318C76.9593 36.4397 76.7353 36.6638 76.4413 36.6638C76.1333 36.6638 75.9233 36.4397 75.9233 36.1597V35.5017C75.4193 36.1597 74.5793 36.7478 73.3053 36.7478ZM73.5153 35.8937C74.8453 35.8937 75.9373 35.0817 75.9373 33.9337V33.2337C75.4053 33.0797 74.6913 32.9257 73.8093 32.9257C72.4513 32.9257 71.6953 33.5137 71.6953 34.4237V34.4517C71.6953 35.3617 72.5353 35.8937 73.5153 35.8937ZM79.2567 36.1177V29.8317C79.2567 29.5377 79.4947 29.2857 79.7887 29.2857C80.0967 29.2857 80.3347 29.5238 80.3347 29.8317V31.1897C80.8667 29.9857 81.9167 29.2577 82.8267 29.2577C83.1487 29.2577 83.3587 29.4957 83.3587 29.8037C83.3587 30.0977 83.1627 30.3077 82.8827 30.3497C81.4827 30.5177 80.3347 31.5677 80.3347 33.6537V36.1177C80.3347 36.4117 80.1107 36.6638 79.8027 36.6638C79.4947 36.6638 79.2567 36.4257 79.2567 36.1177ZM85.9806 38.8758C85.5046 38.8758 85.1546 38.7918 84.7906 38.6658C84.6226 38.5958 84.4546 38.4558 84.4546 38.2038C84.4546 37.9378 84.6786 37.7418 84.9166 37.7418C85.0146 37.7418 85.0986 37.7698 85.1826 37.7978C85.3926 37.8678 85.6026 37.9238 85.9666 37.9238C86.6386 37.9238 87.0306 37.5177 87.4226 36.6358L87.4786 36.5237L84.4546 30.1117C84.4126 30.0137 84.3846 29.9157 84.3846 29.8177C84.3846 29.5238 84.6226 29.2857 84.9306 29.2857C85.2246 29.2857 85.3786 29.4677 85.4766 29.7057L87.9966 35.3897L90.2366 29.6917C90.3206 29.4677 90.4746 29.2857 90.7546 29.2857C91.0486 29.2857 91.2866 29.5238 91.2866 29.8177C91.2866 29.9017 91.2586 29.9997 91.2306 30.0837L88.4026 36.8318C87.7726 38.3298 87.0726 38.8758 85.9806 38.8758Z" fill="white"/>
<path d="M30.4765 36.7338C29.0485 36.7338 27.8585 36.2857 26.7665 35.4177C26.6405 35.3337 26.5565 35.1797 26.5565 34.9977C26.5565 34.6897 26.7945 34.4517 27.0885 34.4517C27.2285 34.4517 27.3545 34.5077 27.4245 34.5777C28.3485 35.3617 29.2725 35.7397 30.5185 35.7397C31.8345 35.7397 32.7025 35.0397 32.7025 34.0737V34.0457C32.7025 33.1357 32.2125 32.6177 30.1545 32.1837C27.9005 31.6937 26.8645 30.9657 26.8645 29.3557V29.3277C26.8645 27.7877 28.2225 26.6537 30.0845 26.6537C31.3725 26.6537 32.3105 26.9757 33.2065 27.6197C33.3185 27.7037 33.4445 27.8577 33.4445 28.0677C33.4445 28.3618 33.2065 28.5997 32.9125 28.5997C32.7865 28.5997 32.6885 28.5717 32.5905 28.5017C31.7645 27.8997 30.9665 27.6477 30.0565 27.6477C28.7825 27.6477 27.9705 28.3477 27.9705 29.2297V29.2577C27.9705 30.1817 28.4745 30.6997 30.6305 31.1617C32.8145 31.6377 33.8225 32.4357 33.8225 33.9337V33.9617C33.8225 35.6417 32.4225 36.7338 30.4765 36.7338ZM42.0915 29.8317V36.1177C42.0915 36.4117 41.8675 36.6638 41.5595 36.6638C41.2655 36.6638 41.0275 36.4257 41.0275 36.1177V35.3337C40.5375 36.1177 39.7955 36.7478 38.5495 36.7478C36.7995 36.7478 35.7775 35.5717 35.7775 33.8497V29.8317C35.7775 29.5238 36.0015 29.2857 36.3095 29.2857C36.6035 29.2857 36.8555 29.5238 36.8555 29.8317V33.5837C36.8555 34.9277 37.5835 35.7677 38.8575 35.7677C40.0895 35.7677 41.0275 34.8577 41.0275 33.4997V29.8317C41.0275 29.5238 41.2515 29.2857 41.5595 29.2857C41.8535 29.2857 42.0915 29.5238 42.0915 29.8317ZM44.5165 36.1177V29.8317C44.5165 29.5377 44.7545 29.2857 45.0485 29.2857C45.3565 29.2857 45.5945 29.5238 45.5945 29.8317V30.5737C46.0705 29.8597 46.7145 29.2018 47.9325 29.2018C49.1085 29.2018 49.8645 29.8317 50.2565 30.6437C50.7745 29.8457 51.5445 29.2018 52.8045 29.2018C54.4705 29.2018 55.4925 30.3217 55.4925 32.1137V36.1177C55.4925 36.4257 55.2545 36.6638 54.9605 36.6638C54.6525 36.6638 54.4145 36.4257 54.4145 36.1177V32.3657C54.4145 30.9657 53.7145 30.1817 52.5385 30.1817C51.4465 30.1817 50.5505 30.9937 50.5505 32.4217V36.1177C50.5505 36.4257 50.3125 36.6638 50.0045 36.6638C49.7105 36.6638 49.4725 36.4257 49.4725 36.1177V32.3377C49.4725 30.9797 48.7585 30.1817 47.6105 30.1817C46.4625 30.1817 45.5945 31.1337 45.5945 32.4637V36.1177C45.5945 36.4257 45.3705 36.6638 45.0625 36.6638C44.7545 36.6638 44.5165 36.4257 44.5165 36.1177ZM57.8329 36.1177V29.8317C57.8329 29.5377 58.0709 29.2857 58.3649 29.2857C58.6729 29.2857 58.9109 29.5238 58.9109 29.8317V30.5737C59.3869 29.8597 60.0309 29.2018 61.2489 29.2018C62.4249 29.2018 63.1809 29.8317 63.5729 30.6437C64.0909 29.8457 64.8609 29.2018 66.1209 29.2018C67.7869 29.2018 68.8089 30.3217 68.8089 32.1137V36.1177C68.8089 36.4257 68.5709 36.6638 68.2769 36.6638C67.9689 36.6638 67.7309 36.4257 67.7309 36.1177V32.3657C67.7309 30.9657 67.0309 30.1817 65.8549 30.1817C64.7629 30.1817 63.8669 30.9937 63.8669 32.4217V36.1177C63.8669 36.4257 63.6289 36.6638 63.3209 36.6638C63.0269 36.6638 62.7889 36.4257 62.7889 36.1177V32.3377C62.7889 30.9797 62.0749 30.1817 60.9269 30.1817C59.7789 30.1817 58.9109 31.1337 58.9109 32.4637V36.1177C58.9109 36.4257 58.6869 36.6638 58.3789 36.6638C58.0709 36.6638 57.8329 36.4257 57.8329 36.1177ZM73.3053 36.7478C71.9613 36.7478 70.6033 35.9777 70.6033 34.4937V34.4657C70.6033 32.9397 71.8633 32.1277 73.6973 32.1277C74.6213 32.1277 75.2793 32.2537 75.9233 32.4357V32.1837C75.9233 30.8817 75.1253 30.2097 73.7673 30.2097C73.0393 30.2097 72.4233 30.3777 71.8913 30.6157C71.8213 30.6437 71.7513 30.6577 71.6953 30.6577C71.4433 30.6577 71.2193 30.4477 71.2193 30.1957C71.2193 29.9717 71.3733 29.8037 71.5133 29.7477C72.2273 29.4397 72.9553 29.2577 73.8793 29.2577C74.9013 29.2577 75.6853 29.5238 76.2173 30.0557C76.7073 30.5457 76.9593 31.2457 76.9593 32.1697V36.1318C76.9593 36.4397 76.7353 36.6638 76.4413 36.6638C76.1333 36.6638 75.9233 36.4397 75.9233 36.1597V35.5017C75.4193 36.1597 74.5793 36.7478 73.3053 36.7478ZM73.5153 35.8937C74.8453 35.8937 75.9373 35.0817 75.9373 33.9337V33.2337C75.4053 33.0797 74.6913 32.9257 73.8093 32.9257C72.4513 32.9257 71.6953 33.5137 71.6953 34.4237V34.4517C71.6953 35.3617 72.5353 35.8937 73.5153 35.8937ZM79.2567 36.1177V29.8317C79.2567 29.5377 79.4947 29.2857 79.7887 29.2857C80.0967 29.2857 80.3347 29.5238 80.3347 29.8317V31.1897C80.8667 29.9857 81.9167 29.2577 82.8267 29.2577C83.1487 29.2577 83.3587 29.4957 83.3587 29.8037C83.3587 30.0977 83.1627 30.3077 82.8827 30.3497C81.4827 30.5177 80.3347 31.5677 80.3347 33.6537V36.1177C80.3347 36.4117 80.1107 36.6638 79.8027 36.6638C79.4947 36.6638 79.2567 36.4257 79.2567 36.1177ZM85.9806 38.8758C85.5046 38.8758 85.1546 38.7918 84.7906 38.6658C84.6226 38.5958 84.4546 38.4558 84.4546 38.2038C84.4546 37.9378 84.6786 37.7418 84.9166 37.7418C85.0146 37.7418 85.0986 37.7698 85.1826 37.7978C85.3926 37.8678 85.6026 37.9238 85.9666 37.9238C86.6386 37.9238 87.0306 37.5177 87.4226 36.6358L87.4786 36.5237L84.4546 30.1117C84.4126 30.0137 84.3846 29.9157 84.3846 29.8177C84.3846 29.5238 84.6226 29.2857 84.9306 29.2857C85.2246 29.2857 85.3786 29.4677 85.4766 29.7057L87.9966 35.3897L90.2366 29.6917C90.3206 29.4677 90.4746 29.2857 90.7546 29.2857C91.0486 29.2857 91.2866 29.5238 91.2866 29.8177C91.2866 29.9017 91.2586 29.9997 91.2306 30.0837L88.4026 36.8318C87.7726 38.3298 87.0726 38.8758 85.9806 38.8758Z" fill="white"/>
<rect x="120.285" y="59.4492" width="8" height="8" rx="2" fill="#F81CB0"/>
<path d="M132.597 65.1692V60.1692C132.597 59.9932 132.741 59.8492 132.909 59.8492H136.373C136.533 59.8492 136.661 59.9772 136.661 60.1372C136.661 60.2972 136.533 60.4332 136.373 60.4332H133.229V62.4332H136.013C136.173 62.4332 136.301 62.5612 136.301 62.7212C136.301 62.8812 136.173 63.0092 136.013 63.0092H133.229V65.1692C133.229 65.3452 133.085 65.4892 132.909 65.4892C132.741 65.4892 132.597 65.3452 132.597 65.1692ZM138.772 65.5372C138.004 65.5372 137.228 65.0972 137.228 64.2492V64.2332C137.228 63.3612 137.948 62.8972 138.996 62.8972C139.524 62.8972 139.9 62.9692 140.268 63.0732V62.9292C140.268 62.1852 139.812 61.8012 139.036 61.8012C138.62 61.8012 138.268 61.8972 137.964 62.0332C137.924 62.0492 137.884 62.0572 137.852 62.0572C137.708 62.0572 137.58 61.9372 137.58 61.7932C137.58 61.6652 137.668 61.5692 137.748 61.5372C138.156 61.3612 138.572 61.2572 139.1 61.2572C139.684 61.2572 140.132 61.4092 140.436 61.7132C140.716 61.9932 140.86 62.3932 140.86 62.9212V65.1852C140.86 65.3612 140.732 65.4892 140.564 65.4892C140.388 65.4892 140.268 65.3612 140.268 65.2012V64.8252C139.98 65.2012 139.5 65.5372 138.772 65.5372ZM138.892 65.0492C139.652 65.0492 140.276 64.5852 140.276 63.9292V63.5292C139.972 63.4412 139.564 63.3532 139.06 63.3532C138.284 63.3532 137.852 63.6892 137.852 64.2092V64.2252C137.852 64.7452 138.332 65.0492 138.892 65.0492ZM144.036 65.5452C142.828 65.5452 141.916 64.5612 141.916 63.4012V63.3852C141.916 62.2172 142.828 61.2252 144.036 61.2252C144.724 61.2252 145.188 61.4892 145.556 61.8252C145.604 61.8652 145.652 61.9452 145.652 62.0412C145.652 62.2092 145.516 62.3372 145.356 62.3372C145.276 62.3372 145.204 62.3052 145.156 62.2652C144.86 61.9932 144.524 61.7692 144.028 61.7692C143.188 61.7692 142.548 62.4812 142.548 63.3692V63.3852C142.548 64.2812 143.204 64.9932 144.068 64.9932C144.54 64.9932 144.916 64.7772 145.22 64.4892C145.26 64.4492 145.316 64.4092 145.396 64.4092C145.548 64.4092 145.676 64.5452 145.676 64.6892C145.676 64.7612 145.644 64.8332 145.596 64.8812C145.204 65.2732 144.732 65.5452 144.036 65.5452ZM146.993 63.1532H149.658C149.594 62.4012 149.162 61.7452 148.338 61.7452C147.618 61.7452 147.074 62.3452 146.993 63.1532ZM149.994 64.9212C149.602 65.2972 149.138 65.5452 148.434 65.5452C147.298 65.5452 146.37 64.6732 146.37 63.3932V63.3772C146.37 62.1852 147.21 61.2252 148.354 61.2252C149.578 61.2252 150.274 62.2252 150.274 63.3212C150.274 63.4892 150.138 63.6092 149.986 63.6092H146.993C147.082 64.5052 147.714 65.0092 148.45 65.0092C148.962 65.0092 149.338 64.8092 149.642 64.5292C149.69 64.4892 149.746 64.4572 149.818 64.4572C149.97 64.4572 150.09 64.5772 150.09 64.7212C150.09 64.7932 150.058 64.8652 149.994 64.9212ZM151.36 65.1772V59.8812C151.36 59.7052 151.496 59.5692 151.664 59.5692C151.84 59.5692 151.976 59.7052 151.976 59.8812V62.1452C152.312 61.6492 152.8 61.2252 153.56 61.2252C154.552 61.2252 155.536 62.0092 155.536 63.3692V63.3852C155.536 64.7372 154.56 65.5372 153.56 65.5372C152.792 65.5372 152.296 65.1212 151.976 64.6572V65.1772C151.976 65.3452 151.848 65.4892 151.672 65.4892C151.496 65.4892 151.36 65.3452 151.36 65.1772ZM153.448 64.9852C154.248 64.9852 154.904 64.3932 154.904 63.3932V63.3772C154.904 62.4012 154.232 61.7772 153.448 61.7772C152.68 61.7772 151.952 62.4252 151.952 63.3692V63.3852C151.952 64.3452 152.68 64.9852 153.448 64.9852ZM158.56 65.5452C157.32 65.5452 156.416 64.5692 156.416 63.4012V63.3852C156.416 62.2172 157.328 61.2252 158.576 61.2252C159.816 61.2252 160.728 62.2012 160.728 63.3692V63.3852C160.728 64.5532 159.808 65.5452 158.56 65.5452ZM158.576 64.9932C159.472 64.9932 160.096 64.2732 160.096 63.4012V63.3852C160.096 62.4972 159.432 61.7692 158.56 61.7692C157.664 61.7692 157.048 62.4972 157.048 63.3692V63.3852C157.048 64.2732 157.704 64.9932 158.576 64.9932ZM163.732 65.5452C162.492 65.5452 161.588 64.5692 161.588 63.4012V63.3852C161.588 62.2172 162.5 61.2252 163.748 61.2252C164.988 61.2252 165.9 62.2012 165.9 63.3692V63.3852C165.9 64.5532 164.98 65.5452 163.732 65.5452ZM163.748 64.9932C164.644 64.9932 165.268 64.2732 165.268 63.4012V63.3852C165.268 62.4972 164.604 61.7692 163.732 61.7692C162.836 61.7692 162.22 62.4972 162.22 63.3692V63.3852C162.22 64.2732 162.876 64.9932 163.748 64.9932ZM167.016 65.1772V59.8812C167.016 59.7132 167.152 59.5692 167.32 59.5692C167.496 59.5692 167.632 59.7132 167.632 59.8812V63.6732L169.872 61.3932C169.944 61.3132 170.016 61.2732 170.112 61.2732C170.28 61.2732 170.392 61.4092 170.392 61.5612C170.392 61.6572 170.352 61.7212 170.272 61.8012L168.92 63.1292L170.4 64.9932C170.456 65.0652 170.48 65.1212 170.48 65.2012C170.48 65.3692 170.352 65.4892 170.184 65.4892C170.072 65.4892 170 65.4492 169.92 65.3452L168.488 63.5372L167.632 64.3852V65.1772C167.632 65.3532 167.504 65.4892 167.328 65.4892C167.152 65.4892 167.016 65.3532 167.016 65.1772Z" fill="white"/>
<path d="M135.848 80.3123C134.509 80.3123 133.508 79.8442 132.767 79.1292C132.624 79.0122 132.507 78.7912 132.507 78.5572C132.507 78.1412 132.858 77.7902 133.274 77.7902C133.508 77.7902 133.677 77.8812 133.807 77.9982C134.379 78.5702 135.029 78.8692 135.874 78.8692C136.771 78.8692 137.447 78.3232 137.447 77.4912V77.4652C137.447 76.5682 136.628 76.0612 135.354 76.0612H135.029C134.652 76.0612 134.34 75.7492 134.34 75.3722C134.34 75.1642 134.431 74.9692 134.678 74.7222L136.81 72.4472H133.508C133.118 72.4472 132.806 72.1352 132.806 71.7582C132.806 71.3682 133.118 71.0562 133.508 71.0562H138.162C138.617 71.0562 138.955 71.3292 138.955 71.7582C138.955 72.1352 138.773 72.3562 138.5 72.6292L136.355 74.8522C137.733 75.0212 139.033 75.7232 139.033 77.4002V77.4262C139.033 79.1032 137.746 80.3123 135.848 80.3123ZM144.534 80.3123C142.142 80.3123 140.582 78.2322 140.582 75.6322V75.6062C140.582 73.0062 142.168 70.9002 144.56 70.9002C146.939 70.9002 148.512 72.9802 148.512 75.5802V75.6062C148.512 78.2062 146.926 80.3123 144.534 80.3123ZM144.56 78.8692C145.977 78.8692 146.861 77.4132 146.861 75.6322V75.6062C146.861 73.8122 145.938 72.3432 144.534 72.3432C143.13 72.3432 142.233 73.7732 142.233 75.5802V75.6062C142.233 77.4002 143.143 78.8692 144.56 78.8692ZM152.004 75.6062C150.73 75.6062 149.872 74.5532 149.872 73.3052V73.2792C149.872 72.0052 150.743 70.9522 152.03 70.9522C153.317 70.9522 154.162 72.0052 154.162 73.2532V73.2792C154.162 74.5402 153.304 75.6062 152.004 75.6062ZM151.25 79.7142C151.25 79.5842 151.302 79.4672 151.367 79.3762L157.334 71.2252C157.425 71.0692 157.594 70.9912 157.776 70.9912C158.062 70.9912 158.296 71.2122 158.296 71.4982C158.296 71.6282 158.244 71.7452 158.179 71.8362L152.212 79.9872C152.108 80.1432 151.939 80.2213 151.757 80.2213C151.471 80.2213 151.25 80.0002 151.25 79.7142ZM157.503 80.2603C156.229 80.2603 155.371 79.2072 155.371 77.9592V77.9332C155.371 76.6592 156.242 75.6062 157.529 75.6062C158.803 75.6062 159.661 76.6592 159.661 77.9072V77.9332C159.661 79.1942 158.79 80.2603 157.503 80.2603ZM152.03 74.6052C152.641 74.6052 153.005 74.0072 153.005 73.3052V73.2792C153.005 72.5512 152.589 71.9532 152.004 71.9532C151.393 71.9532 151.029 72.5512 151.029 73.2532V73.2792C151.029 74.0202 151.445 74.6052 152.03 74.6052ZM157.529 79.2592C158.14 79.2592 158.504 78.6612 158.504 77.9592V77.9332C158.504 77.2052 158.088 76.6072 157.503 76.6072C156.892 76.6072 156.528 77.2052 156.528 77.9072V77.9332C156.528 78.6742 156.944 79.2592 157.529 79.2592Z" fill="white"/>
<rect x="120.285" y="97.0273" width="8" height="8" rx="2" fill="#9691FF"/>
<path d="M134.317 102.747V100.827L132.237 97.9153C132.197 97.8513 132.165 97.7793 132.165 97.6993C132.165 97.5313 132.317 97.3873 132.493 97.3873C132.629 97.3873 132.717 97.4673 132.797 97.5793L134.645 100.243L136.509 97.5793C136.589 97.4673 136.669 97.3873 136.805 97.3873C136.981 97.3873 137.117 97.5313 137.117 97.6993C137.117 97.7793 137.069 97.8673 137.029 97.9313L134.957 100.811V102.747C134.957 102.923 134.813 103.067 134.637 103.067C134.461 103.067 134.317 102.923 134.317 102.747ZM139.264 103.123C138.024 103.123 137.12 102.147 137.12 100.979V100.963C137.12 99.7953 138.032 98.8033 139.28 98.8033C140.52 98.8033 141.432 99.7793 141.432 100.947V100.963C141.432 102.131 140.512 103.123 139.264 103.123ZM139.28 102.571C140.176 102.571 140.799 101.851 140.799 100.979V100.963C140.799 100.075 140.136 99.3473 139.264 99.3473C138.368 99.3473 137.752 100.075 137.752 100.947V100.963C137.752 101.851 138.408 102.571 139.28 102.571ZM146.091 99.1633V102.755C146.091 102.923 145.963 103.067 145.787 103.067C145.619 103.067 145.483 102.931 145.483 102.755V102.307C145.203 102.755 144.779 103.115 144.067 103.115C143.067 103.115 142.483 102.443 142.483 101.459V99.1633C142.483 98.9873 142.611 98.8513 142.787 98.8513C142.955 98.8513 143.099 98.9873 143.099 99.1633V101.307C143.099 102.075 143.515 102.555 144.243 102.555C144.947 102.555 145.483 102.035 145.483 101.259V99.1633C145.483 98.9873 145.611 98.8513 145.787 98.8513C145.955 98.8513 146.091 98.9873 146.091 99.1633ZM148.861 103.099C148.197 103.099 147.693 102.771 147.693 101.931V99.4353H147.357C147.213 99.4353 147.085 99.3073 147.085 99.1633C147.085 99.0113 147.213 98.8913 147.357 98.8913H147.693V97.9153C147.693 97.7473 147.821 97.6033 147.997 97.6033C148.165 97.6033 148.309 97.7473 148.309 97.9153V98.8913H149.381C149.533 98.8913 149.661 99.0193 149.661 99.1633C149.661 99.3153 149.533 99.4353 149.381 99.4353H148.309V101.851C148.309 102.355 148.589 102.539 149.005 102.539C149.221 102.539 149.333 102.483 149.381 102.483C149.525 102.483 149.645 102.603 149.645 102.747C149.645 102.859 149.573 102.947 149.469 102.987C149.293 103.059 149.101 103.099 148.861 103.099ZM154.255 99.1633V102.755C154.255 102.923 154.127 103.067 153.951 103.067C153.783 103.067 153.647 102.931 153.647 102.755V102.307C153.367 102.755 152.943 103.115 152.231 103.115C151.231 103.115 150.647 102.443 150.647 101.459V99.1633C150.647 98.9873 150.775 98.8513 150.951 98.8513C151.119 98.8513 151.263 98.9873 151.263 99.1633V101.307C151.263 102.075 151.679 102.555 152.407 102.555C153.111 102.555 153.647 102.035 153.647 101.259V99.1633C153.647 98.9873 153.775 98.8513 153.951 98.8513C154.119 98.8513 154.255 98.9873 154.255 99.1633ZM155.641 102.755V97.4593C155.641 97.2833 155.777 97.1473 155.945 97.1473C156.121 97.1473 156.257 97.2833 156.257 97.4593V99.7233C156.593 99.2273 157.081 98.8033 157.841 98.8033C158.833 98.8033 159.817 99.5873 159.817 100.947V100.963C159.817 102.315 158.841 103.115 157.841 103.115C157.073 103.115 156.577 102.699 156.257 102.235V102.755C156.257 102.923 156.129 103.067 155.953 103.067C155.777 103.067 155.641 102.923 155.641 102.755ZM157.729 102.563C158.529 102.563 159.185 101.971 159.185 100.971V100.955C159.185 99.9793 158.513 99.3553 157.729 99.3553C156.961 99.3553 156.233 100.003 156.233 100.947V100.963C156.233 101.923 156.961 102.563 157.729 102.563ZM161.322 100.731H163.986C163.922 99.9793 163.49 99.3233 162.666 99.3233C161.946 99.3233 161.402 99.9233 161.322 100.731ZM164.322 102.499C163.93 102.875 163.466 103.123 162.762 103.123C161.626 103.123 160.698 102.251 160.698 100.971V100.955C160.698 99.7633 161.538 98.8033 162.682 98.8033C163.906 98.8033 164.602 99.8033 164.602 100.899C164.602 101.067 164.466 101.187 164.314 101.187H161.322C161.41 102.083 162.042 102.587 162.778 102.587C163.29 102.587 163.666 102.387 163.97 102.107C164.018 102.067 164.074 102.035 164.146 102.035C164.298 102.035 164.418 102.155 164.418 102.299C164.418 102.371 164.386 102.443 164.322 102.499Z" fill="white"/>
<path d="M136.186 117.89C135.068 117.89 134.262 117.539 133.651 116.928C132.962 116.239 132.546 115.29 132.546 113.457V113.431C132.546 110.649 133.872 108.478 136.446 108.478C137.382 108.478 138.123 108.725 138.721 109.128C138.968 109.284 139.124 109.492 139.124 109.817C139.124 110.233 138.773 110.558 138.357 110.558C138.214 110.558 138.071 110.506 137.954 110.441C137.46 110.116 137.005 109.934 136.394 109.934C135.042 109.934 134.288 111.156 134.21 112.82C134.691 112.352 135.315 111.91 136.394 111.91C138.149 111.91 139.566 112.95 139.566 114.77V114.796C139.566 116.603 138.097 117.89 136.186 117.89ZM136.147 116.499C137.278 116.499 137.967 115.797 137.967 114.861V114.835C137.967 113.925 137.239 113.249 136.108 113.249C134.977 113.249 134.262 113.977 134.262 114.848V114.874C134.262 115.797 135.016 116.499 136.147 116.499ZM143.092 113.184C141.818 113.184 140.96 112.131 140.96 110.883V110.857C140.96 109.583 141.831 108.53 143.118 108.53C144.405 108.53 145.25 109.583 145.25 110.831V110.857C145.25 112.118 144.392 113.184 143.092 113.184ZM142.338 117.292C142.338 117.162 142.39 117.045 142.455 116.954L148.422 108.803C148.513 108.647 148.682 108.569 148.864 108.569C149.15 108.569 149.384 108.79 149.384 109.076C149.384 109.206 149.332 109.323 149.267 109.414L143.3 117.565C143.196 117.721 143.027 117.799 142.845 117.799C142.559 117.799 142.338 117.578 142.338 117.292ZM148.591 117.838C147.317 117.838 146.459 116.785 146.459 115.537V115.511C146.459 114.237 147.33 113.184 148.617 113.184C149.891 113.184 150.749 114.237 150.749 115.485V115.511C150.749 116.772 149.878 117.838 148.591 117.838ZM143.118 112.183C143.729 112.183 144.093 111.585 144.093 110.883V110.857C144.093 110.129 143.677 109.531 143.092 109.531C142.481 109.531 142.117 110.129 142.117 110.831V110.857C142.117 111.598 142.533 112.183 143.118 112.183ZM148.617 116.837C149.228 116.837 149.592 116.239 149.592 115.537V115.511C149.592 114.783 149.176 114.185 148.591 114.185C147.98 114.185 147.616 114.783 147.616 115.485V115.511C147.616 116.252 148.032 116.837 148.617 116.837Z" fill="white"/>
<rect opacity="0.6" x="182.18" y="59.4492" width="8" height="8" rx="2" fill="#F81CB0"/>
<path d="M194.547 65.1692V60.1292C194.547 59.9532 194.691 59.8092 194.859 59.8092C195.035 59.8092 195.179 59.9532 195.179 60.1292V65.1692C195.179 65.3452 195.035 65.4892 194.859 65.4892C194.691 65.4892 194.547 65.3452 194.547 65.1692ZM196.715 65.1772V61.5852C196.715 61.4172 196.851 61.2732 197.019 61.2732C197.195 61.2732 197.331 61.4092 197.331 61.5852V62.0332C197.603 61.5852 198.035 61.2252 198.747 61.2252C199.747 61.2252 200.331 61.8972 200.331 62.8812V65.1772C200.331 65.3532 200.195 65.4892 200.027 65.4892C199.851 65.4892 199.715 65.3532 199.715 65.1772V63.0332C199.715 62.2652 199.299 61.7852 198.571 61.7852C197.859 61.7852 197.331 62.3052 197.331 63.0812V65.1772C197.331 65.3532 197.203 65.4892 197.027 65.4892C196.851 65.4892 196.715 65.3532 196.715 65.1772ZM203.013 65.5292C202.469 65.5292 201.869 65.3292 201.421 65.0092C201.365 64.9692 201.309 64.8892 201.309 64.7852C201.309 64.6412 201.429 64.5212 201.581 64.5212C201.637 64.5212 201.693 64.5372 201.733 64.5692C202.157 64.8572 202.597 65.0092 203.045 65.0092C203.541 65.0092 203.901 64.7532 203.901 64.3532V64.3372C203.901 63.9212 203.413 63.7612 202.869 63.6092C202.221 63.4252 201.501 63.2012 201.501 62.4412V62.4252C201.501 61.7132 202.093 61.2412 202.909 61.2412C203.349 61.2412 203.829 61.3772 204.229 61.5932C204.309 61.6412 204.381 61.7292 204.381 61.8492C204.381 61.9932 204.261 62.1132 204.109 62.1132C204.053 62.1132 204.005 62.0972 203.973 62.0812C203.621 61.8812 203.245 61.7612 202.893 61.7612C202.405 61.7612 202.093 62.0172 202.093 62.3612V62.3772C202.093 62.7692 202.605 62.9212 203.157 63.0892C203.797 63.2812 204.485 63.5292 204.485 64.2732V64.2892C204.485 65.0732 203.837 65.5292 203.013 65.5292ZM206.935 65.5212C206.271 65.5212 205.767 65.1932 205.767 64.3532V61.8572H205.431C205.287 61.8572 205.159 61.7292 205.159 61.5852C205.159 61.4332 205.287 61.3132 205.431 61.3132H205.767V60.3372C205.767 60.1692 205.895 60.0252 206.071 60.0252C206.239 60.0252 206.383 60.1692 206.383 60.3372V61.3132H207.455C207.607 61.3132 207.735 61.4412 207.735 61.5852C207.735 61.7372 207.607 61.8572 207.455 61.8572H206.383V64.2732C206.383 64.7772 206.663 64.9612 207.079 64.9612C207.295 64.9612 207.407 64.9052 207.455 64.9052C207.599 64.9052 207.719 65.0252 207.719 65.1692C207.719 65.2812 207.647 65.3692 207.543 65.4092C207.367 65.4812 207.175 65.5212 206.935 65.5212ZM210.018 65.5372C209.25 65.5372 208.474 65.0972 208.474 64.2492V64.2332C208.474 63.3612 209.194 62.8972 210.242 62.8972C210.77 62.8972 211.146 62.9692 211.514 63.0732V62.9292C211.514 62.1852 211.058 61.8012 210.282 61.8012C209.866 61.8012 209.514 61.8972 209.21 62.0332C209.17 62.0492 209.13 62.0572 209.098 62.0572C208.954 62.0572 208.826 61.9372 208.826 61.7932C208.826 61.6652 208.914 61.5692 208.994 61.5372C209.402 61.3612 209.818 61.2572 210.346 61.2572C210.93 61.2572 211.378 61.4092 211.682 61.7132C211.962 61.9932 212.106 62.3932 212.106 62.9212V65.1852C212.106 65.3612 211.978 65.4892 211.81 65.4892C211.634 65.4892 211.514 65.3612 211.514 65.2012V64.8252C211.226 65.2012 210.746 65.5372 210.018 65.5372ZM210.138 65.0492C210.898 65.0492 211.522 64.5852 211.522 63.9292V63.5292C211.218 63.4412 210.81 63.3532 210.306 63.3532C209.53 63.3532 209.098 63.6892 209.098 64.2092V64.2252C209.098 64.7452 209.578 65.0492 210.138 65.0492ZM215.25 66.7452C214.618 66.7452 214.042 66.5772 213.522 66.2572C213.426 66.2092 213.362 66.1132 213.362 66.0012C213.362 65.8652 213.498 65.7292 213.642 65.7292C213.698 65.7292 213.738 65.7452 213.778 65.7692C214.21 66.0572 214.706 66.2172 215.242 66.2172C216.154 66.2172 216.746 65.7132 216.746 64.7452V64.2572C216.386 64.7372 215.882 65.1292 215.122 65.1292C214.13 65.1292 213.178 64.3852 213.178 63.1932V63.1772C213.178 61.9692 214.138 61.2252 215.122 61.2252C215.898 61.2252 216.402 61.6092 216.738 62.0572V61.5852C216.738 61.4172 216.866 61.2732 217.042 61.2732C217.218 61.2732 217.354 61.4172 217.354 61.5852V64.7292C217.354 65.3692 217.162 65.8572 216.826 66.1932C216.458 66.5612 215.906 66.7452 215.25 66.7452ZM215.242 64.5852C216.026 64.5852 216.762 64.0172 216.762 63.1852V63.1692C216.762 62.3212 216.026 61.7692 215.242 61.7692C214.458 61.7692 213.81 62.3132 213.81 63.1612V63.1772C213.81 64.0092 214.474 64.5852 215.242 64.5852ZM218.731 65.1772V61.5852C218.731 61.4172 218.867 61.2732 219.035 61.2732C219.211 61.2732 219.347 61.4092 219.347 61.5852V62.3612C219.651 61.6732 220.251 61.2572 220.771 61.2572C220.955 61.2572 221.075 61.3932 221.075 61.5692C221.075 61.7372 220.963 61.8572 220.803 61.8812C220.003 61.9772 219.347 62.5772 219.347 63.7692V65.1772C219.347 65.3452 219.219 65.4892 219.043 65.4892C218.867 65.4892 218.731 65.3532 218.731 65.1772ZM223.002 65.5372C222.234 65.5372 221.458 65.0972 221.458 64.2492V64.2332C221.458 63.3612 222.178 62.8972 223.226 62.8972C223.754 62.8972 224.13 62.9692 224.498 63.0732V62.9292C224.498 62.1852 224.042 61.8012 223.266 61.8012C222.85 61.8012 222.498 61.8972 222.194 62.0332C222.154 62.0492 222.114 62.0572 222.082 62.0572C221.938 62.0572 221.81 61.9372 221.81 61.7932C221.81 61.6652 221.898 61.5692 221.978 61.5372C222.386 61.3612 222.802 61.2572 223.33 61.2572C223.914 61.2572 224.362 61.4092 224.666 61.7132C224.946 61.9932 225.09 62.3932 225.09 62.9212V65.1852C225.09 65.3612 224.962 65.4892 224.794 65.4892C224.618 65.4892 224.498 65.3612 224.498 65.2012V64.8252C224.21 65.2012 223.73 65.5372 223.002 65.5372ZM223.122 65.0492C223.882 65.0492 224.506 64.5852 224.506 63.9292V63.5292C224.202 63.4412 223.794 63.3532 223.29 63.3532C222.514 63.3532 222.082 63.6892 222.082 64.2092V64.2252C222.082 64.7452 222.562 65.0492 223.122 65.0492ZM226.403 65.1772V61.5852C226.403 61.4172 226.539 61.2732 226.707 61.2732C226.883 61.2732 227.019 61.4092 227.019 61.5852V62.0092C227.291 61.6012 227.659 61.2252 228.355 61.2252C229.027 61.2252 229.459 61.5852 229.683 62.0492C229.979 61.5932 230.419 61.2252 231.139 61.2252C232.091 61.2252 232.675 61.8652 232.675 62.8892V65.1772C232.675 65.3532 232.539 65.4892 232.371 65.4892C232.195 65.4892 232.059 65.3532 232.059 65.1772V63.0332C232.059 62.2332 231.659 61.7852 230.987 61.7852C230.363 61.7852 229.851 62.2492 229.851 63.0652V65.1772C229.851 65.3532 229.715 65.4892 229.539 65.4892C229.371 65.4892 229.235 65.3532 229.235 65.1772V63.0172C229.235 62.2412 228.827 61.7852 228.171 61.7852C227.515 61.7852 227.019 62.3292 227.019 63.0892V65.1772C227.019 65.3532 226.891 65.4892 226.715 65.4892C226.539 65.4892 226.403 65.3532 226.403 65.1772Z" fill="white"/>
<path d="M197.742 80.3123C196.403 80.3123 195.402 79.8442 194.661 79.1292C194.518 79.0122 194.401 78.7912 194.401 78.5572C194.401 78.1412 194.752 77.7902 195.168 77.7902C195.402 77.7902 195.571 77.8812 195.701 77.9982C196.273 78.5702 196.923 78.8692 197.768 78.8692C198.665 78.8692 199.341 78.3232 199.341 77.4912V77.4652C199.341 76.5682 198.522 76.0612 197.248 76.0612H196.923C196.546 76.0612 196.234 75.7492 196.234 75.3722C196.234 75.1642 196.325 74.9692 196.572 74.7222L198.704 72.4472H195.402C195.012 72.4472 194.7 72.1352 194.7 71.7582C194.7 71.3682 195.012 71.0562 195.402 71.0562H200.056C200.511 71.0562 200.849 71.3292 200.849 71.7582C200.849 72.1352 200.667 72.3562 200.394 72.6292L198.249 74.8522C199.627 75.0212 200.927 75.7232 200.927 77.4002V77.4262C200.927 79.1032 199.64 80.3123 197.742 80.3123ZM207.091 79.4672V78.1152H203.022C202.593 78.1152 202.242 77.8032 202.242 77.3612C202.242 77.0492 202.359 76.7892 202.593 76.5162L206.87 71.4462C207.156 71.1082 207.377 70.9262 207.845 70.9262C208.274 70.9262 208.625 71.2642 208.625 71.6932V76.8022H209.327C209.704 76.8022 209.99 77.1012 209.99 77.4652C209.99 77.8292 209.704 78.1152 209.327 78.1152H208.625V79.4672C208.625 79.8962 208.287 80.2213 207.858 80.2213C207.429 80.2213 207.091 79.8962 207.091 79.4672ZM204.101 76.8022H207.091V73.2012L204.101 76.8022ZM213.353 75.6062C212.079 75.6062 211.221 74.5532 211.221 73.3052V73.2792C211.221 72.0052 212.092 70.9522 213.379 70.9522C214.666 70.9522 215.511 72.0052 215.511 73.2532V73.2792C215.511 74.5402 214.653 75.6062 213.353 75.6062ZM212.599 79.7142C212.599 79.5842 212.651 79.4672 212.716 79.3762L218.683 71.2252C218.774 71.0692 218.943 70.9912 219.125 70.9912C219.411 70.9912 219.645 71.2122 219.645 71.4982C219.645 71.6282 219.593 71.7452 219.528 71.8362L213.561 79.9872C213.457 80.1432 213.288 80.2213 213.106 80.2213C212.82 80.2213 212.599 80.0002 212.599 79.7142ZM218.852 80.2603C217.578 80.2603 216.72 79.2072 216.72 77.9592V77.9332C216.72 76.6592 217.591 75.6062 218.878 75.6062C220.152 75.6062 221.01 76.6592 221.01 77.9072V77.9332C221.01 79.1942 220.139 80.2603 218.852 80.2603ZM213.379 74.6052C213.99 74.6052 214.354 74.0072 214.354 73.3052V73.2792C214.354 72.5512 213.938 71.9532 213.353 71.9532C212.742 71.9532 212.378 72.5512 212.378 73.2532V73.2792C212.378 74.0202 212.794 74.6052 213.379 74.6052ZM218.878 79.2592C219.489 79.2592 219.853 78.6612 219.853 77.9592V77.9332C219.853 77.2052 219.437 76.6072 218.852 76.6072C218.241 76.6072 217.877 77.2052 217.877 77.9072V77.9332C217.877 78.6742 218.293 79.2592 218.878 79.2592Z" fill="white"/>
<rect opacity="0.6" x="182.18" y="97.0273" width="8" height="8" rx="2" fill="#726AFF"/>
<path d="M195.971 102.747V98.0113H194.347C194.187 98.0113 194.051 97.8833 194.051 97.7233C194.051 97.5633 194.187 97.4273 194.347 97.4273H198.235C198.395 97.4273 198.531 97.5633 198.531 97.7233C198.531 97.8833 198.395 98.0113 198.235 98.0113H196.611V102.747C196.611 102.923 196.467 103.067 196.291 103.067C196.115 103.067 195.971 102.923 195.971 102.747ZM200.255 103.091C200.103 103.091 199.975 102.995 199.911 102.811L198.655 99.3153C198.639 99.2673 198.615 99.2033 198.615 99.1473C198.615 98.9953 198.743 98.8513 198.927 98.8513C199.087 98.8513 199.191 98.9553 199.239 99.1073L200.279 102.211L201.327 99.0993C201.375 98.9553 201.471 98.8513 201.631 98.8513H201.663C201.831 98.8513 201.935 98.9553 201.983 99.0993L203.023 102.211L204.079 99.0913C204.119 98.9633 204.207 98.8513 204.375 98.8513C204.551 98.8513 204.679 98.9873 204.679 99.1393C204.679 99.1953 204.655 99.2593 204.639 99.3073L203.375 102.811C203.311 102.995 203.183 103.091 203.039 103.091H203.015C202.855 103.091 202.735 102.995 202.679 102.811L201.647 99.7953L200.607 102.811C200.551 102.995 200.431 103.091 200.271 103.091H200.255ZM205.77 97.6993V97.5953C205.77 97.3953 205.93 97.2673 206.13 97.2673C206.338 97.2673 206.498 97.3953 206.498 97.5953V97.6993C206.498 97.8913 206.338 98.0273 206.13 98.0273C205.93 98.0273 205.77 97.8913 205.77 97.6993ZM205.826 102.755V99.1633C205.826 98.9953 205.962 98.8513 206.13 98.8513C206.306 98.8513 206.442 98.9873 206.442 99.1633V102.755C206.442 102.931 206.314 103.067 206.138 103.067C205.962 103.067 205.826 102.931 205.826 102.755ZM209.256 103.099C208.592 103.099 208.088 102.771 208.088 101.931V99.4353H207.752C207.608 99.4353 207.48 99.3073 207.48 99.1633C207.48 99.0113 207.608 98.8913 207.752 98.8913H208.088V97.9153C208.088 97.7473 208.216 97.6033 208.392 97.6033C208.56 97.6033 208.704 97.7473 208.704 97.9153V98.8913H209.776C209.928 98.8913 210.056 99.0193 210.056 99.1633C210.056 99.3153 209.928 99.4353 209.776 99.4353H208.704V101.851C208.704 102.355 208.984 102.539 209.4 102.539C209.616 102.539 209.728 102.483 209.776 102.483C209.92 102.483 210.04 102.603 210.04 102.747C210.04 102.859 209.968 102.947 209.864 102.987C209.688 103.059 209.496 103.099 209.256 103.099ZM212.49 103.099C211.826 103.099 211.322 102.771 211.322 101.931V99.4353H210.986C210.842 99.4353 210.714 99.3073 210.714 99.1633C210.714 99.0113 210.842 98.8913 210.986 98.8913H211.322V97.9153C211.322 97.7473 211.45 97.6033 211.626 97.6033C211.794 97.6033 211.938 97.7473 211.938 97.9153V98.8913H213.01C213.162 98.8913 213.29 99.0193 213.29 99.1633C213.29 99.3153 213.162 99.4353 213.01 99.4353H211.938V101.851C211.938 102.355 212.218 102.539 212.634 102.539C212.85 102.539 212.962 102.483 213.01 102.483C213.154 102.483 213.274 102.603 213.274 102.747C213.274 102.859 213.202 102.947 213.098 102.987C212.922 103.059 212.73 103.099 212.49 103.099ZM214.591 100.731H217.255C217.191 99.9793 216.759 99.3233 215.935 99.3233C215.215 99.3233 214.671 99.9233 214.591 100.731ZM217.591 102.499C217.199 102.875 216.735 103.123 216.031 103.123C214.895 103.123 213.967 102.251 213.967 100.971V100.955C213.967 99.7633 214.807 98.8033 215.951 98.8033C217.175 98.8033 217.871 99.8033 217.871 100.899C217.871 101.067 217.735 101.187 217.583 101.187H214.591C214.679 102.083 215.311 102.587 216.047 102.587C216.559 102.587 216.935 102.387 217.239 102.107C217.287 102.067 217.343 102.035 217.415 102.035C217.567 102.035 217.687 102.155 217.687 102.299C217.687 102.371 217.655 102.443 217.591 102.499ZM218.958 102.755V99.1633C218.958 98.9953 219.094 98.8513 219.262 98.8513C219.438 98.8513 219.574 98.9873 219.574 99.1633V99.9393C219.878 99.2513 220.478 98.8353 220.998 98.8353C221.182 98.8353 221.302 98.9713 221.302 99.1473C221.302 99.3153 221.19 99.4353 221.03 99.4593C220.23 99.5553 219.574 100.155 219.574 101.347V102.755C219.574 102.923 219.446 103.067 219.27 103.067C219.094 103.067 218.958 102.931 218.958 102.755Z" fill="white"/>
<path d="M197.742 117.89C196.403 117.89 195.402 117.422 194.661 116.707C194.518 116.59 194.401 116.369 194.401 116.135C194.401 115.719 194.752 115.368 195.168 115.368C195.402 115.368 195.571 115.459 195.701 115.576C196.273 116.148 196.923 116.447 197.768 116.447C198.665 116.447 199.341 115.901 199.341 115.069V115.043C199.341 114.146 198.522 113.639 197.248 113.639H196.923C196.546 113.639 196.234 113.327 196.234 112.95C196.234 112.742 196.325 112.547 196.572 112.3L198.704 110.025H195.402C195.012 110.025 194.7 109.713 194.7 109.336C194.7 108.946 195.012 108.634 195.402 108.634H200.056C200.511 108.634 200.849 108.907 200.849 109.336C200.849 109.713 200.667 109.934 200.394 110.207L198.249 112.43C199.627 112.599 200.927 113.301 200.927 114.978V115.004C200.927 116.681 199.64 117.89 197.742 117.89ZM206.428 117.89C204.036 117.89 202.476 115.81 202.476 113.21V113.184C202.476 110.584 204.062 108.478 206.454 108.478C208.833 108.478 210.406 110.558 210.406 113.158V113.184C210.406 115.784 208.82 117.89 206.428 117.89ZM206.454 116.447C207.871 116.447 208.755 114.991 208.755 113.21V113.184C208.755 111.39 207.832 109.921 206.428 109.921C205.024 109.921 204.127 111.351 204.127 113.158V113.184C204.127 114.978 205.037 116.447 206.454 116.447ZM213.899 113.184C212.625 113.184 211.767 112.131 211.767 110.883V110.857C211.767 109.583 212.638 108.53 213.925 108.53C215.212 108.53 216.057 109.583 216.057 110.831V110.857C216.057 112.118 215.199 113.184 213.899 113.184ZM213.145 117.292C213.145 117.162 213.197 117.045 213.262 116.954L219.229 108.803C219.32 108.647 219.489 108.569 219.671 108.569C219.957 108.569 220.191 108.79 220.191 109.076C220.191 109.206 220.139 109.323 220.074 109.414L214.107 117.565C214.003 117.721 213.834 117.799 213.652 117.799C213.366 117.799 213.145 117.578 213.145 117.292ZM219.398 117.838C218.124 117.838 217.266 116.785 217.266 115.537V115.511C217.266 114.237 218.137 113.184 219.424 113.184C220.698 113.184 221.556 114.237 221.556 115.485V115.511C221.556 116.772 220.685 117.838 219.398 117.838ZM213.925 112.183C214.536 112.183 214.9 111.585 214.9 110.883V110.857C214.9 110.129 214.484 109.531 213.899 109.531C213.288 109.531 212.924 110.129 212.924 110.831V110.857C212.924 111.598 213.34 112.183 213.925 112.183ZM219.424 116.837C220.035 116.837 220.399 116.239 220.399 115.537V115.511C220.399 114.783 219.983 114.185 219.398 114.185C218.787 114.185 218.423 114.783 218.423 115.485V115.511C218.423 116.252 218.839 116.837 219.424 116.837Z" fill="white"/>
<path opacity="0.6" d="M94.3321 122.178C100.694 114.472 103.899 104.641 103.302 94.6661C102.705 84.6908 98.3501 75.3125 91.1143 68.4201L79.9627 80.1274C84.2373 84.199 86.81 89.7393 87.1628 95.6321C87.5155 101.525 85.622 107.333 81.8636 111.885L94.3321 122.178Z" fill="#F81CB0"/>
<path opacity="0.6" d="M89.0174 66.56C85.0164 63.2571 80.4041 60.7745 75.4437 59.254C70.4834 57.7335 65.2721 57.2049 60.1074 57.6985L61.6454 73.7936C64.6964 73.502 67.775 73.8143 70.7054 74.7125C73.6357 75.6107 76.3604 77.0773 78.724 79.0285L89.0174 66.56Z" fill="#726AFF"/>
<path d="M56.2149 58.2672C49.7782 59.5377 43.7592 62.3913 38.7013 66.5703C33.6434 70.7493 29.7059 76.1222 27.2443 82.2038C24.7827 88.2855 23.8745 94.8844 24.6016 101.405C25.3287 107.926 27.6683 114.162 31.4091 119.552L44.6919 110.334C42.482 107.15 41.0999 103.465 40.6704 99.6131C40.2408 95.7611 40.7774 91.8628 42.2316 88.2701C43.6858 84.6773 46.0118 81.5033 48.9998 79.0346C51.9877 76.5658 55.5434 74.8801 59.3459 74.1295L56.2149 58.2672Z" fill="#F81CB0"/>
<path d="M33.9307 122.809C37.5489 127.01 42.0107 130.402 47.0261 132.765C52.0415 135.129 57.4981 136.41 63.0411 136.525C68.5841 136.641 74.0895 135.589 79.1991 133.437C84.3087 131.285 88.9082 128.082 92.6985 124.036L80.8986 112.982C78.6594 115.373 75.9423 117.265 72.9238 118.536C69.9053 119.807 66.653 120.429 63.3785 120.36C60.104 120.292 56.8805 119.535 53.9177 118.139C50.9548 116.743 48.319 114.739 46.1816 112.258L33.9307 122.809Z" fill="#9691FF"/>
<defs>
<filter id="filter0_bd_67_2218" x="-5.75391" y="-5.01172" width="271.504" height="170.338" filterUnits="userSpaceOnUse" color-interpolation-filters="sRGB">
<feFlood flood-opacity="0" result="BackgroundImageFix"/>
<feGaussianBlur in="BackgroundImageFix" stdDeviation="7"/>
<feComposite in2="SourceAlpha" operator="in" result="effect1_backgroundBlur_67_2218"/>
<feColorMatrix in="SourceAlpha" type="matrix" values="0 0 0 0 0 0 0 0 0 0 0 0 0 0 0 0 0 0 127 0" result="hardAlpha"/>
<feOffset/>
<feGaussianBlur stdDeviation="4"/>
<feComposite in2="hardAlpha" operator="out"/>
<feColorMatrix type="matrix" values="0 0 0 0 0.294118 0 0 0 0 0.298039 0 0 0 0 1 0 0 0 1 0"/>
<feBlend mode="normal" in2="effect1_backgroundBlur_67_2218" result="effect2_dropShadow_67_2218"/>
<feBlend mode="normal" in="SourceGraphic" in2="effect2_dropShadow_67_2218" result="shape"/>
</filter>
<linearGradient id="paint0_linear_67_2218" x1="8.24609" y1="80.1573" x2="251.752" y2="80.1573" gradientUnits="userSpaceOnUse">
<stop stop-color="#7670FF"/>
<stop offset="1" stop-color="#5B42FF"/>
</linearGradient>
<linearGradient id="paint1_linear_67_2218" x1="8.24609" y1="80.1573" x2="251.752" y2="80.1573" gradientUnits="userSpaceOnUse">
<stop stop-color="#7670FF"/>
<stop offset="1" stop-color="#5B42FF"/>
</linearGradient>
</defs>
</svg>
