<svg width="239" height="325" viewBox="0 0 239 325" fill="none" xmlns="http://www.w3.org/2000/svg">
<g filter="url(#filter0_bd_67_2145)">
<rect x="8.65625" y="8.37695" width="222" height="308" rx="24" fill="url(#paint0_linear_67_2145)" fill-opacity="0.17" shape-rendering="crispEdges"/>
<rect x="9.15625" y="8.87695" width="221" height="307" rx="23.5" stroke="url(#paint1_linear_67_2145)" shape-rendering="crispEdges"/>
</g>
<path d="M25.5255 42.5581C25.5255 42.4321 25.5675 42.3061 25.6375 42.1661L29.2775 34.0461C29.4735 33.6121 29.8235 33.3461 30.3135 33.3461H30.3975C30.8875 33.3461 31.2235 33.6121 31.4195 34.0461L35.0595 42.1661C35.1295 42.2921 35.1575 42.4181 35.1575 42.5301C35.1575 42.9921 34.8075 43.3561 34.3455 43.3561C33.9395 43.3561 33.6595 43.1181 33.5055 42.7541L32.7075 40.9201H27.9475L27.1215 42.8101C26.9815 43.1601 26.6875 43.3561 26.3235 43.3561C25.8755 43.3561 25.5255 43.0061 25.5255 42.5581ZM28.6055 39.3941H32.0495L30.3275 35.4321L28.6055 39.3941ZM36.8296 42.5161V36.6641C36.8296 36.1881 37.1936 35.8101 37.6696 35.8101C38.1456 35.8101 38.5236 36.1881 38.5236 36.6641V37.0281C38.9996 36.3421 39.6856 35.7401 40.8336 35.7401C42.4996 35.7401 43.4656 36.8601 43.4656 38.5681V42.5161C43.4656 42.9921 43.1016 43.3561 42.6256 43.3561C42.1496 43.3561 41.7716 42.9921 41.7716 42.5161V39.0861C41.7716 37.9381 41.1976 37.2801 40.1896 37.2801C39.2096 37.2801 38.5236 37.9661 38.5236 39.1141V42.5161C38.5236 42.9921 38.1456 43.3561 37.6696 43.3561C37.2076 43.3561 36.8296 42.9921 36.8296 42.5161ZM47.6393 43.4401C46.2533 43.4401 45.0213 42.6421 45.0213 41.1581V41.1301C45.0213 39.5341 46.2673 38.7501 48.0733 38.7501C48.8993 38.7501 49.4873 38.8761 50.0613 39.0581V38.8761C50.0613 37.8261 49.4173 37.2661 48.2273 37.2661C47.5833 37.2661 47.0513 37.3781 46.5893 37.5601C46.4913 37.5881 46.4073 37.6021 46.3233 37.6021C45.9313 37.6021 45.6093 37.2941 45.6093 36.9021C45.6093 36.5941 45.8193 36.3281 46.0713 36.2301C46.7713 35.9641 47.4853 35.7961 48.4513 35.7961C49.5573 35.7961 50.3833 36.0901 50.9013 36.6221C51.4473 37.1541 51.6993 37.9381 51.6993 38.9041V42.5441C51.6993 43.0061 51.3353 43.3561 50.8733 43.3561C50.3833 43.3561 50.0473 43.0201 50.0473 42.6421V42.3621C49.5433 42.9641 48.7733 43.4401 47.6393 43.4401ZM48.1153 42.2081C49.2353 42.2081 50.0893 41.5641 50.0893 40.6261V40.1221C49.6553 39.9541 49.0813 39.8281 48.4093 39.8281C47.3173 39.8281 46.6733 40.2901 46.6733 41.0601V41.0881C46.6733 41.8021 47.3033 42.2081 48.1153 42.2081ZM53.8261 42.5161V33.8361C53.8261 33.3741 54.1901 32.9961 54.6661 32.9961C55.1421 32.9961 55.5201 33.3741 55.5201 33.8361V42.5161C55.5201 42.9921 55.1421 43.3561 54.6661 43.3561C54.2041 43.3561 53.8261 42.9921 53.8261 42.5161ZM59.0779 45.5681C58.6019 45.5681 58.2519 45.4981 57.9019 45.3581C57.6499 45.2741 57.3699 45.0641 57.3699 44.6581C57.3699 44.2381 57.6919 43.9581 58.0559 43.9581C58.1959 43.9581 58.2799 43.9861 58.3639 44.0141C58.5599 44.0701 58.7139 44.1121 58.9519 44.1121C59.4559 44.1121 59.7219 43.9021 60.0019 43.3281L60.0579 43.1741L57.3139 37.0421C57.2579 36.9161 57.2159 36.7481 57.2159 36.6361C57.2159 36.1601 57.5799 35.8101 58.0559 35.8101C58.4899 35.8101 58.7279 36.0621 58.8819 36.4541L60.8699 41.3681L62.7179 36.4541C62.8579 36.1041 63.0959 35.8101 63.5299 35.8101C63.9779 35.8101 64.3419 36.1601 64.3419 36.6081C64.3419 36.7481 64.2999 36.9301 64.2719 37.0141L61.5699 43.4961C60.9399 45.0081 60.2679 45.5681 59.0779 45.5681ZM68.4287 43.4121C67.1827 43.4121 66.3007 42.8661 66.3007 41.2421V37.3501H66.0207C65.6147 37.3501 65.2927 37.0281 65.2927 36.6221C65.2927 36.2161 65.6147 35.8941 66.0207 35.8941H66.3007V34.6341C66.3007 34.1721 66.6787 33.7941 67.1547 33.7941C67.6167 33.7941 67.9947 34.1721 67.9947 34.6341V35.8941H69.3247C69.7307 35.8941 70.0667 36.2161 70.0667 36.6221C70.0667 37.0281 69.7307 37.3501 69.3247 37.3501H67.9947V40.9761C67.9947 41.6341 68.3307 41.9001 68.9047 41.9001C69.1007 41.9001 69.2687 41.8581 69.3247 41.8581C69.7027 41.8581 70.0387 42.1661 70.0387 42.5581C70.0387 42.8661 69.8287 43.1181 69.5907 43.2161C69.2267 43.3421 68.8767 43.4121 68.4287 43.4121ZM71.6786 33.9901V33.9061C71.6786 33.4021 72.0986 33.0801 72.6446 33.0801C73.1906 33.0801 73.6106 33.4021 73.6106 33.9061V33.9901C73.6106 34.4941 73.1906 34.8301 72.6446 34.8301C72.0986 34.8301 71.6786 34.4941 71.6786 33.9901ZM71.8046 42.5161V36.6641C71.8046 36.1881 72.1686 35.8101 72.6446 35.8101C73.1206 35.8101 73.4986 36.1881 73.4986 36.6641V42.5161C73.4986 42.9921 73.1206 43.3561 72.6446 43.3561C72.1826 43.3561 71.8046 42.9921 71.8046 42.5161ZM79.1284 43.4541C76.9304 43.4541 75.3064 41.7321 75.3064 39.6321V39.6041C75.3064 37.5041 76.9304 35.7401 79.1564 35.7401C80.3184 35.7401 81.1164 36.1181 81.7464 36.6641C81.8584 36.7621 82.0124 36.9721 82.0124 37.2521C82.0124 37.6861 81.6624 38.0221 81.2284 38.0221C81.0184 38.0221 80.8364 37.9381 80.7244 37.8541C80.2904 37.4901 79.8144 37.2241 79.1424 37.2241C77.9104 37.2241 77.0004 38.2881 77.0004 39.5761V39.6041C77.0004 40.9201 77.9104 41.9701 79.2124 41.9701C79.8844 41.9701 80.4024 41.7041 80.8644 41.3121C80.9624 41.2281 81.1304 41.1301 81.3264 41.1301C81.7324 41.1301 82.0544 41.4661 82.0544 41.8721C82.0544 42.0961 81.9704 42.2781 81.8164 42.4041C81.1584 43.0341 80.3604 43.4541 79.1284 43.4541ZM86.2445 43.4261C85.3065 43.4261 84.2845 43.1321 83.4305 42.5441C83.2485 42.4461 83.1085 42.2361 83.1085 41.9561C83.1085 41.5781 83.4025 41.2701 83.7945 41.2701C83.9345 41.2701 84.0605 41.3121 84.1585 41.3681C84.8725 41.8441 85.6145 42.0821 86.2865 42.0821C87.0145 42.0821 87.4345 41.7741 87.4345 41.2841V41.2561C87.4345 40.6821 86.6505 40.4861 85.7825 40.2201C84.6905 39.9121 83.4725 39.4641 83.4725 38.0501V38.0221C83.4725 36.6221 84.6345 35.7681 86.1045 35.7681C86.8885 35.7681 87.7145 35.9921 88.4285 36.3701C88.6665 36.4961 88.8345 36.7201 88.8345 37.0141C88.8345 37.4061 88.5265 37.7001 88.1345 37.7001C87.9945 37.7001 87.9105 37.6721 87.7985 37.6161C87.1965 37.3081 86.5805 37.1121 86.0625 37.1121C85.4045 37.1121 85.0265 37.4201 85.0265 37.8401V37.8681C85.0265 38.4141 85.8245 38.6381 86.6925 38.9181C87.7705 39.2541 88.9885 39.7441 88.9885 41.0741V41.1021C88.9885 42.6561 87.7845 43.4261 86.2445 43.4261ZM99.7934 43.4541C96.7834 43.4541 94.6834 41.1721 94.6834 38.4141V38.3861C94.6834 35.6281 96.8114 33.3181 99.8214 33.3181C102.831 33.3181 104.931 35.6001 104.931 38.3581V38.3861C104.931 41.1441 102.803 43.4541 99.7934 43.4541ZM99.8214 41.8581C101.767 41.8581 103.125 40.3181 103.125 38.4141V38.3861C103.125 36.4821 101.739 34.9001 99.7934 34.9001C97.8474 34.9001 96.4894 36.4541 96.4894 38.3581V38.3861C96.4894 40.2901 97.8754 41.8581 99.8214 41.8581ZM110.862 42.6841C110.666 43.1181 110.358 43.4261 109.896 43.4261H109.812C109.35 43.4261 109.042 43.1321 108.846 42.6841L106.382 37.0421C106.34 36.9161 106.284 36.7761 106.284 36.6221C106.284 36.2021 106.662 35.8101 107.124 35.8101C107.586 35.8101 107.824 36.0761 107.964 36.4261L109.868 41.3261L111.8 36.3981C111.926 36.1041 112.15 35.8101 112.598 35.8101C113.06 35.8101 113.424 36.1601 113.424 36.6221C113.424 36.7761 113.368 36.9441 113.326 37.0281L110.862 42.6841ZM115.979 39.0721H119.773C119.661 37.9801 119.017 37.1261 117.897 37.1261C116.861 37.1261 116.133 37.9241 115.979 39.0721ZM120.753 42.4741C120.081 43.0761 119.241 43.4541 118.093 43.4541C115.951 43.4541 114.299 41.9001 114.299 39.6181V39.5901C114.299 37.4761 115.797 35.7401 117.911 35.7401C120.263 35.7401 121.425 37.6721 121.425 39.3801C121.425 39.8561 121.061 40.1921 120.627 40.1921H115.993C116.175 41.3961 117.029 42.0681 118.121 42.0681C118.835 42.0681 119.395 41.8161 119.871 41.4241C119.997 41.3261 120.109 41.2701 120.305 41.2701C120.683 41.2701 120.977 41.5641 120.977 41.9561C120.977 42.1661 120.879 42.3481 120.753 42.4741ZM123.154 42.5161V36.6641C123.154 36.1881 123.518 35.8101 123.994 35.8101C124.47 35.8101 124.848 36.1881 124.848 36.6641V37.4201C125.24 36.4961 125.968 35.7961 126.71 35.7961C127.242 35.7961 127.55 36.1461 127.55 36.6361C127.55 37.0841 127.256 37.3781 126.878 37.4481C125.674 37.6581 124.848 38.5821 124.848 40.3321V42.5161C124.848 42.9781 124.47 43.3561 123.994 43.3561C123.532 43.3561 123.154 42.9921 123.154 42.5161ZM132.983 42.6841C132.787 43.1181 132.479 43.4261 132.017 43.4261H131.933C131.471 43.4261 131.163 43.1321 130.967 42.6841L128.503 37.0421C128.461 36.9161 128.405 36.7761 128.405 36.6221C128.405 36.2021 128.783 35.8101 129.245 35.8101C129.707 35.8101 129.945 36.0761 130.085 36.4261L131.989 41.3261L133.921 36.3981C134.047 36.1041 134.271 35.8101 134.719 35.8101C135.181 35.8101 135.545 36.1601 135.545 36.6221C135.545 36.7761 135.489 36.9441 135.447 37.0281L132.983 42.6841ZM137.112 33.9901V33.9061C137.112 33.4021 137.532 33.0801 138.078 33.0801C138.624 33.0801 139.044 33.4021 139.044 33.9061V33.9901C139.044 34.4941 138.624 34.8301 138.078 34.8301C137.532 34.8301 137.112 34.4941 137.112 33.9901ZM137.238 42.5161V36.6641C137.238 36.1881 137.602 35.8101 138.078 35.8101C138.554 35.8101 138.932 36.1881 138.932 36.6641V42.5161C138.932 42.9921 138.554 43.3561 138.078 43.3561C137.616 43.3561 137.238 42.9921 137.238 42.5161ZM142.42 39.0721H146.214C146.102 37.9801 145.458 37.1261 144.338 37.1261C143.302 37.1261 142.574 37.9241 142.42 39.0721ZM147.194 42.4741C146.522 43.0761 145.682 43.4541 144.534 43.4541C142.392 43.4541 140.74 41.9001 140.74 39.6181V39.5901C140.74 37.4761 142.238 35.7401 144.352 35.7401C146.704 35.7401 147.866 37.6721 147.866 39.3801C147.866 39.8561 147.502 40.1921 147.068 40.1921H142.434C142.616 41.3961 143.47 42.0681 144.562 42.0681C145.276 42.0681 145.836 41.8161 146.312 41.4241C146.438 41.3261 146.55 41.2701 146.746 41.2701C147.124 41.2701 147.418 41.5641 147.418 41.9561C147.418 42.1661 147.32 42.3481 147.194 42.4741ZM151.827 43.4121C151.407 43.4121 151.057 43.1741 150.889 42.6561L148.901 37.0281C148.859 36.9161 148.817 36.7341 148.817 36.5941C148.817 36.1881 149.139 35.8101 149.643 35.8101C150.063 35.8101 150.343 36.0901 150.469 36.4821L151.897 40.9621L153.339 36.4821C153.465 36.0901 153.773 35.8101 154.207 35.8101H154.305C154.739 35.8101 155.047 36.0901 155.173 36.4821L156.629 40.9621L158.071 36.4681C158.183 36.1041 158.449 35.8101 158.897 35.8101C159.359 35.8101 159.695 36.1741 159.695 36.5941C159.695 36.7201 159.653 36.8881 159.625 36.9721L157.609 42.6561C157.427 43.1741 157.077 43.4121 156.671 43.4121H156.615C156.195 43.4121 155.845 43.1741 155.691 42.6841L154.249 38.2881L152.793 42.6841C152.639 43.1741 152.289 43.4121 151.883 43.4121H151.827Z" fill="white"/>
<mask id="path-4-inside-1_67_2145" fill="white">
<path d="M171.225 105.76C199.705 134.24 199.705 180.416 171.225 208.897C142.744 237.377 96.5684 237.377 68.088 208.897C39.6075 180.416 39.6075 134.24 68.088 105.76C96.5684 77.2792 142.744 77.2792 171.225 105.76ZM87.1683 189.816C105.111 207.759 134.202 207.759 152.145 189.816C170.087 171.874 170.087 142.783 152.145 124.84C134.202 106.897 105.111 106.897 87.1683 124.84C69.2256 142.783 69.2256 171.874 87.1683 189.816Z"/>
</mask>
<path d="M171.225 105.76C199.705 134.24 199.705 180.416 171.225 208.897C142.744 237.377 96.5684 237.377 68.088 208.897C39.6075 180.416 39.6075 134.24 68.088 105.76C96.5684 77.2792 142.744 77.2792 171.225 105.76ZM87.1683 189.816C105.111 207.759 134.202 207.759 152.145 189.816C170.087 171.874 170.087 142.783 152.145 124.84C134.202 106.897 105.111 106.897 87.1683 124.84C69.2256 142.783 69.2256 171.874 87.1683 189.816Z" stroke="url(#paint2_linear_67_2145)" stroke-width="2" mask="url(#path-4-inside-1_67_2145)"/>
<path d="M119.656 97.8912C119.656 90.4398 113.565 84.273 106.241 85.6438C95.9802 87.5641 86.1975 91.6754 77.5851 97.7579C65.278 106.45 55.965 118.74 50.9264 132.94C45.8878 147.139 45.3708 162.551 49.4466 177.056C53.5224 191.561 61.9908 204.448 73.6878 213.945C85.3849 223.442 99.7363 229.083 114.769 230.093C129.803 231.103 144.779 227.431 157.641 219.584C170.503 211.736 180.619 200.097 186.598 186.267C190.782 176.589 192.796 166.171 192.568 155.734C192.405 148.285 185.119 143.59 177.826 145.12C170.534 146.651 166.075 153.888 165.429 161.311C165.004 166.194 163.798 171.007 161.829 175.56C158.063 184.273 151.69 191.605 143.587 196.549C135.484 201.493 126.048 203.806 116.578 203.17C107.107 202.534 98.0653 198.98 90.6962 192.997C83.3271 187.014 77.992 178.895 75.4243 169.757C72.8565 160.618 73.1822 150.909 76.3565 141.963C79.5309 133.018 85.398 125.275 93.1515 119.799C97.2029 116.938 101.665 114.769 106.357 113.35C113.49 111.193 119.656 105.342 119.656 97.8912Z" fill="url(#paint3_linear_67_2145)"/>
<mask id="path-6-inside-2_67_2145" fill="white">
<path d="M152.694 124.289C170.941 142.536 170.941 172.12 152.694 190.367C134.448 208.614 104.864 208.614 86.6169 190.367C68.3701 172.12 68.3701 142.536 86.6169 124.289C104.864 106.043 134.448 106.043 152.694 124.289ZM100.163 176.821C110.928 187.587 128.383 187.587 139.148 176.821C149.914 166.055 149.914 148.601 139.148 137.835C128.383 127.07 110.928 127.07 100.163 137.835C89.3971 148.601 89.3971 166.055 100.163 176.821Z"/>
</mask>
<path d="M152.694 124.289C170.941 142.536 170.941 172.12 152.694 190.367C134.448 208.614 104.864 208.614 86.6169 190.367C68.3701 172.12 68.3701 142.536 86.6169 124.289C104.864 106.043 134.448 106.043 152.694 124.289ZM100.163 176.821C110.928 187.587 128.383 187.587 139.148 176.821C149.914 166.055 149.914 148.601 139.148 137.835C128.383 127.07 110.928 127.07 100.163 137.835C89.3971 148.601 89.3971 166.055 100.163 176.821Z" stroke="url(#paint4_linear_67_2145)" stroke-width="2" mask="url(#path-6-inside-2_67_2145)"/>
<g style="mix-blend-mode:overlay">
<path d="M125.905 120.712C126.795 115.498 123.263 110.444 117.976 110.634C111.022 110.885 104.169 112.687 97.936 115.959C88.8573 120.726 81.5987 128.347 77.2794 137.646C72.96 146.946 71.8199 157.409 74.0348 167.42C76.2496 177.432 81.6964 186.438 89.5354 193.048C97.3743 199.658 107.17 203.506 117.412 203.998C127.654 204.49 137.774 201.6 146.211 195.772C154.648 189.944 160.933 181.503 164.098 171.75C166.271 165.054 166.89 157.995 165.962 151.098C165.257 145.855 159.68 143.227 154.69 144.985C149.701 146.743 147.268 152.279 147.222 157.569C147.197 160.359 146.749 163.148 145.877 165.837C144.009 171.591 140.301 176.572 135.323 180.01C130.345 183.448 124.375 185.154 118.332 184.863C112.289 184.573 106.51 182.303 101.885 178.403C97.2597 174.503 94.0461 169.19 92.7393 163.283C91.4325 157.376 92.1052 151.203 94.6536 145.716C97.202 140.229 101.485 135.733 106.841 132.921C109.344 131.606 112.017 130.694 114.764 130.199C119.97 129.26 125.015 125.927 125.905 120.712Z" fill="url(#paint5_linear_67_2145)"/>
</g>
<mask id="path-8-inside-3_67_2145" fill="white">
<path d="M139.202 137.783C149.997 148.577 149.997 166.079 139.202 176.873C128.408 187.668 110.906 187.668 100.112 176.873C89.3171 166.079 89.3171 148.577 100.112 137.783C110.906 126.988 128.408 126.988 139.202 137.783ZM109.884 167.101C115.282 172.498 124.032 172.498 129.43 167.101C134.827 161.703 134.827 152.953 129.43 147.556C124.032 142.158 115.282 142.158 109.884 147.556C104.487 152.953 104.487 161.703 109.884 167.101Z"/>
</mask>
<path d="M139.202 137.783C149.997 148.577 149.997 166.079 139.202 176.873C128.408 187.668 110.906 187.668 100.112 176.873C89.3171 166.079 89.3171 148.577 100.112 137.783C110.906 126.988 128.408 126.988 139.202 137.783ZM109.884 167.101C115.282 172.498 124.032 172.498 129.43 167.101C134.827 161.703 134.827 152.953 129.43 147.556C124.032 142.158 115.282 142.158 109.884 147.556C104.487 152.953 104.487 161.703 109.884 167.101Z" stroke="url(#paint6_linear_67_2145)" stroke-width="2" mask="url(#path-8-inside-3_67_2145)"/>
<path d="M128.856 138.75C130.549 135.33 129.145 131.087 125.412 130.293C121.483 129.456 117.391 129.481 113.423 130.399C107.193 131.841 101.656 135.399 97.7546 140.466C93.8535 145.533 91.8301 151.797 92.0291 158.188C92.2282 164.58 94.6373 170.705 98.8461 175.52C103.055 180.335 108.803 183.541 115.111 184.593C121.419 185.645 127.896 184.477 133.439 181.288C138.982 178.099 143.249 173.087 145.511 167.106C146.951 163.297 147.523 159.245 147.219 155.239C146.931 151.434 142.914 149.475 139.298 150.696C135.682 151.917 133.93 155.967 133.268 159.726C133.119 160.571 132.891 161.405 132.584 162.217C131.453 165.208 129.32 167.714 126.548 169.308C123.776 170.902 120.538 171.486 117.384 170.96C114.23 170.435 111.356 168.831 109.251 166.424C107.147 164.017 105.943 160.954 105.843 157.758C105.744 154.562 106.755 151.431 108.706 148.897C110.656 146.364 113.425 144.585 116.54 143.864C117.386 143.668 118.243 143.553 119.101 143.519C122.914 143.365 127.162 142.17 128.856 138.75Z" fill="url(#paint7_linear_67_2145)"/>
<path d="M114.789 180.003V179.237H112.481C112.238 179.237 112.039 179.06 112.039 178.809C112.039 178.632 112.105 178.485 112.238 178.33L114.663 175.455C114.826 175.263 114.951 175.16 115.216 175.16C115.46 175.16 115.659 175.352 115.659 175.595V178.492H116.057C116.27 178.492 116.433 178.662 116.433 178.868C116.433 179.075 116.27 179.237 116.057 179.237H115.659V180.003C115.659 180.247 115.467 180.431 115.224 180.431C114.98 180.431 114.789 180.247 114.789 180.003ZM113.093 178.492H114.789V176.45L113.093 178.492Z" fill="white"/>
<path d="M119.047 180.483C118.347 180.483 117.816 180.247 117.396 179.922C117.285 179.834 117.211 179.716 117.211 179.568C117.211 179.333 117.41 179.134 117.646 179.134C117.757 179.134 117.838 179.163 117.912 179.222C118.266 179.51 118.627 179.657 119.032 179.657C119.615 179.657 120.035 179.31 120.035 178.765V178.75C120.035 178.219 119.592 177.895 118.966 177.895C118.465 177.895 118.221 178.072 118.081 178.072C117.941 178.072 117.831 178.02 117.654 177.895C117.521 177.799 117.469 177.667 117.477 177.497L117.587 175.639C117.602 175.403 117.779 175.234 118 175.234H120.337C120.558 175.234 120.742 175.418 120.742 175.639C120.742 175.86 120.558 176.037 120.337 176.037H118.398L118.317 177.246C118.56 177.158 118.789 177.099 119.135 177.099C120.145 177.099 120.934 177.63 120.934 178.721V178.735C120.934 179.782 120.153 180.483 119.047 180.483Z" fill="white"/>
<path d="M122.932 177.814C122.21 177.814 121.723 177.217 121.723 176.509V176.494C121.723 175.772 122.217 175.175 122.947 175.175C123.677 175.175 124.156 175.772 124.156 176.48V176.494C124.156 177.21 123.669 177.814 122.932 177.814ZM122.505 180.143C122.505 180.07 122.534 180.003 122.571 179.952L125.955 175.33C126.006 175.241 126.102 175.197 126.205 175.197C126.368 175.197 126.5 175.322 126.5 175.485C126.5 175.558 126.471 175.625 126.434 175.676L123.05 180.298C122.991 180.387 122.895 180.431 122.792 180.431C122.63 180.431 122.505 180.306 122.505 180.143ZM126.051 180.453C125.328 180.453 124.842 179.856 124.842 179.148V179.134C124.842 178.411 125.335 177.814 126.065 177.814C126.788 177.814 127.274 178.411 127.274 179.119V179.134C127.274 179.849 126.78 180.453 126.051 180.453ZM122.947 177.246C123.293 177.246 123.5 176.907 123.5 176.509V176.494C123.5 176.082 123.264 175.743 122.932 175.743C122.586 175.743 122.379 176.082 122.379 176.48V176.494C122.379 176.915 122.615 177.246 122.947 177.246ZM126.065 179.885C126.412 179.885 126.618 179.546 126.618 179.148V179.134C126.618 178.721 126.382 178.382 126.051 178.382C125.704 178.382 125.498 178.721 125.498 179.119V179.134C125.498 179.554 125.734 179.885 126.065 179.885Z" fill="white"/>
<path d="M113.03 197.94C113.03 197.866 113.067 197.741 113.111 197.659L115.116 193.944H112.882C112.661 193.944 112.484 193.767 112.484 193.546C112.484 193.325 112.661 193.148 112.882 193.148H115.78C116.03 193.148 116.192 193.295 116.192 193.553C116.192 193.686 116.141 193.848 116.067 193.988L113.929 198.043C113.819 198.249 113.679 198.345 113.494 198.345C113.251 198.345 113.03 198.198 113.03 197.94Z" fill="white"/>
<path d="M116.721 197.881C116.721 197.704 116.802 197.556 116.957 197.431L118.542 196.082C119.25 195.485 119.508 195.153 119.508 194.689C119.508 194.18 119.146 193.885 118.675 193.885C118.262 193.885 117.974 194.077 117.657 194.46C117.591 194.534 117.488 194.6 117.34 194.6C117.112 194.6 116.928 194.416 116.928 194.187C116.928 194.092 116.964 193.988 117.031 193.907C117.451 193.384 117.93 193.074 118.741 193.074C119.751 193.074 120.444 193.693 120.444 194.615V194.63C120.444 195.441 120.016 195.883 119.102 196.627L118.041 197.512H120.134C120.355 197.512 120.532 197.689 120.532 197.91C120.532 198.131 120.355 198.308 120.134 198.308H117.208C116.928 198.308 116.721 198.146 116.721 197.881Z" fill="white"/>
<path d="M122.488 195.728C121.766 195.728 121.279 195.131 121.279 194.423V194.409C121.279 193.686 121.773 193.089 122.503 193.089C123.233 193.089 123.712 193.686 123.712 194.394V194.409C123.712 195.124 123.225 195.728 122.488 195.728ZM122.06 198.058C122.06 197.984 122.09 197.917 122.127 197.866L125.51 193.244C125.562 193.155 125.658 193.111 125.761 193.111C125.923 193.111 126.056 193.236 126.056 193.399C126.056 193.472 126.026 193.539 125.99 193.59L122.606 198.212C122.547 198.301 122.451 198.345 122.348 198.345C122.186 198.345 122.06 198.22 122.06 198.058ZM125.606 198.367C124.884 198.367 124.397 197.77 124.397 197.062V197.048C124.397 196.325 124.891 195.728 125.621 195.728C126.343 195.728 126.83 196.325 126.83 197.033V197.048C126.83 197.763 126.336 198.367 125.606 198.367ZM122.503 195.16C122.849 195.16 123.056 194.821 123.056 194.423V194.409C123.056 193.996 122.82 193.657 122.488 193.657C122.141 193.657 121.935 193.996 121.935 194.394V194.409C121.935 194.829 122.171 195.16 122.503 195.16ZM125.621 197.8C125.967 197.8 126.174 197.46 126.174 197.062V197.048C126.174 196.635 125.938 196.296 125.606 196.296C125.26 196.296 125.053 196.635 125.053 197.033V197.048C125.053 197.468 125.289 197.8 125.621 197.8Z" fill="white"/>
<path d="M33.0335 268.98V264.74H31.6735C31.4175 264.74 31.2175 264.532 31.2175 264.284C31.2175 264.036 31.4175 263.828 31.6735 263.828H35.3935C35.6415 263.828 35.8415 264.036 35.8415 264.284C35.8415 264.532 35.6415 264.74 35.3935 264.74H34.0255V268.98C34.0255 269.252 33.8015 269.468 33.5295 269.468C33.2575 269.468 33.0335 269.252 33.0335 268.98ZM37.8269 269.524C36.5389 269.524 35.5869 268.54 35.5869 267.34V267.324C35.5869 266.116 36.5469 265.116 37.8429 265.116C39.1389 265.116 40.0909 266.1 40.0909 267.308V267.324C40.0909 268.524 39.1309 269.524 37.8269 269.524ZM37.8429 268.676C38.6269 268.676 39.1229 268.068 39.1229 267.34V267.324C39.1229 266.58 38.5869 265.964 37.8269 265.964C37.0509 265.964 36.5549 266.572 36.5549 267.308V267.324C36.5549 268.06 37.0909 268.676 37.8429 268.676ZM42.4928 269.5C41.7808 269.5 41.2768 269.188 41.2768 268.26V266.036H41.1168C40.8848 266.036 40.7008 265.852 40.7008 265.62C40.7008 265.388 40.8848 265.204 41.1168 265.204H41.2768V264.484C41.2768 264.22 41.4928 264.004 41.7648 264.004C42.0288 264.004 42.2448 264.22 42.2448 264.484V265.204H43.0048C43.2368 265.204 43.4288 265.388 43.4288 265.62C43.4288 265.852 43.2368 266.036 43.0048 266.036H42.2448V268.108C42.2448 268.484 42.4368 268.636 42.7648 268.636C42.8768 268.636 42.9728 268.612 43.0048 268.612C43.2208 268.612 43.4128 268.788 43.4128 269.012C43.4128 269.188 43.2928 269.332 43.1568 269.388C42.9488 269.46 42.7488 269.5 42.4928 269.5ZM45.5818 269.516C44.7898 269.516 44.0858 269.06 44.0858 268.212V268.196C44.0858 267.284 44.7978 266.836 45.8298 266.836C46.3018 266.836 46.6378 266.908 46.9658 267.012V266.908C46.9658 266.308 46.5978 265.988 45.9178 265.988C45.5498 265.988 45.2458 266.052 44.9818 266.156C44.9258 266.172 44.8778 266.18 44.8298 266.18C44.6058 266.18 44.4218 266.004 44.4218 265.78C44.4218 265.604 44.5418 265.452 44.6858 265.396C45.0858 265.244 45.4938 265.148 46.0458 265.148C46.6778 265.148 47.1498 265.316 47.4458 265.62C47.7578 265.924 47.9018 266.372 47.9018 266.924V269.004C47.9018 269.268 47.6938 269.468 47.4298 269.468C47.1498 269.468 46.9578 269.276 46.9578 269.06V268.9C46.6698 269.244 46.2298 269.516 45.5818 269.516ZM45.8538 268.812C46.4938 268.812 46.9818 268.444 46.9818 267.908V267.62C46.7338 267.524 46.4058 267.452 46.0218 267.452C45.3978 267.452 45.0298 267.716 45.0298 268.156V268.172C45.0298 268.58 45.3898 268.812 45.8538 268.812ZM49.1171 268.988V264.028C49.1171 263.764 49.3251 263.548 49.5971 263.548C49.8691 263.548 50.0851 263.764 50.0851 264.028V268.988C50.0851 269.26 49.8691 269.468 49.5971 269.468C49.3331 269.468 49.1171 269.26 49.1171 268.988ZM53.8606 268.98V264.324C53.8606 264.044 54.0766 263.828 54.3566 263.828H56.3566C57.0606 263.828 57.6126 264.036 57.9726 264.388C58.2686 264.692 58.4366 265.108 58.4366 265.596V265.612C58.4366 266.508 57.9166 267.052 57.1646 267.284L58.2366 268.636C58.3326 268.756 58.3966 268.86 58.3966 269.012C58.3966 269.284 58.1646 269.468 57.9246 269.468C57.7006 269.468 57.5566 269.364 57.4446 269.212L56.0846 267.476H54.8446V268.98C54.8446 269.252 54.6286 269.468 54.3566 269.468C54.0766 269.468 53.8606 269.252 53.8606 268.98ZM54.8446 266.604H56.2846C56.9886 266.604 57.4366 266.236 57.4366 265.668V265.652C57.4366 265.052 57.0046 264.724 56.2766 264.724H54.8446V266.604ZM60.1798 267.02H62.3478C62.2838 266.396 61.9158 265.908 61.2758 265.908C60.6838 265.908 60.2678 266.364 60.1798 267.02ZM62.9078 268.964C62.5238 269.308 62.0438 269.524 61.3878 269.524C60.1638 269.524 59.2198 268.636 59.2198 267.332V267.316C59.2198 266.108 60.0758 265.116 61.2838 265.116C62.6278 265.116 63.2918 266.22 63.2918 267.196C63.2918 267.468 63.0838 267.66 62.8358 267.66H60.1878C60.2918 268.348 60.7798 268.732 61.4038 268.732C61.8118 268.732 62.1318 268.588 62.4038 268.364C62.4758 268.308 62.5398 268.276 62.6518 268.276C62.8678 268.276 63.0358 268.444 63.0358 268.668C63.0358 268.788 62.9798 268.892 62.9078 268.964ZM66.4122 269.084C66.3002 269.332 66.1242 269.508 65.8602 269.508H65.8122C65.5482 269.508 65.3722 269.34 65.2602 269.084L63.8522 265.86C63.8282 265.788 63.7962 265.708 63.7962 265.62C63.7962 265.38 64.0122 265.156 64.2762 265.156C64.5402 265.156 64.6762 265.308 64.7562 265.508L65.8442 268.308L66.9482 265.492C67.0202 265.324 67.1482 265.156 67.4042 265.156C67.6682 265.156 67.8762 265.356 67.8762 265.62C67.8762 265.708 67.8442 265.804 67.8202 265.852L66.4122 269.084ZM69.336 267.02H71.504C71.44 266.396 71.072 265.908 70.432 265.908C69.84 265.908 69.424 266.364 69.336 267.02ZM72.064 268.964C71.68 269.308 71.2 269.524 70.544 269.524C69.32 269.524 68.376 268.636 68.376 267.332V267.316C68.376 266.108 69.232 265.116 70.44 265.116C71.784 265.116 72.448 266.22 72.448 267.196C72.448 267.468 72.24 267.66 71.992 267.66H69.344C69.448 268.348 69.936 268.732 70.56 268.732C70.968 268.732 71.288 268.588 71.56 268.364C71.632 268.308 71.696 268.276 71.808 268.276C72.024 268.276 72.192 268.444 72.192 268.668C72.192 268.788 72.136 268.892 72.064 268.964ZM73.4361 268.988V265.644C73.4361 265.372 73.6441 265.156 73.9161 265.156C74.1881 265.156 74.4041 265.372 74.4041 265.644V265.852C74.6761 265.46 75.0681 265.116 75.7241 265.116C76.6761 265.116 77.2281 265.756 77.2281 266.732V268.988C77.2281 269.26 77.0201 269.468 76.7481 269.468C76.4761 269.468 76.2601 269.26 76.2601 268.988V267.028C76.2601 266.372 75.9321 265.996 75.3561 265.996C74.7961 265.996 74.4041 266.388 74.4041 267.044V268.988C74.4041 269.26 74.1881 269.468 73.9161 269.468C73.6521 269.468 73.4361 269.26 73.4361 268.988ZM82.1491 265.644V268.988C82.1491 269.252 81.9331 269.468 81.6611 269.468C81.3971 269.468 81.1731 269.26 81.1731 268.988V268.772C80.9011 269.172 80.5091 269.516 79.8531 269.516C78.9011 269.516 78.3491 268.876 78.3491 267.892V265.644C78.3491 265.372 78.5651 265.156 78.8291 265.156C79.1011 265.156 79.3171 265.372 79.3171 265.644V267.604C79.3171 268.26 79.6451 268.628 80.2211 268.628C80.7811 268.628 81.1731 268.244 81.1731 267.588V265.644C81.1731 265.372 81.3891 265.156 81.6611 265.156C81.9251 265.156 82.1491 265.372 82.1491 265.644ZM84.086 267.02H86.254C86.19 266.396 85.822 265.908 85.182 265.908C84.59 265.908 84.174 266.364 84.086 267.02ZM86.814 268.964C86.43 269.308 85.95 269.524 85.294 269.524C84.07 269.524 83.126 268.636 83.126 267.332V267.316C83.126 266.108 83.982 265.116 85.19 265.116C86.534 265.116 87.198 266.22 87.198 267.196C87.198 267.468 86.99 267.66 86.742 267.66H84.094C84.198 268.348 84.686 268.732 85.31 268.732C85.718 268.732 86.038 268.588 86.31 268.364C86.382 268.308 86.446 268.276 86.558 268.276C86.774 268.276 86.942 268.444 86.942 268.668C86.942 268.788 86.886 268.892 86.814 268.964Z" fill="white"/>
<path d="M109.467 268.98V264.74H108.107C107.851 264.74 107.651 264.532 107.651 264.284C107.651 264.036 107.851 263.828 108.107 263.828H111.827C112.075 263.828 112.275 264.036 112.275 264.284C112.275 264.532 112.075 264.74 111.827 264.74H110.459V268.98C110.459 269.252 110.235 269.468 109.963 269.468C109.691 269.468 109.467 269.252 109.467 268.98ZM114.261 269.524C112.973 269.524 112.021 268.54 112.021 267.34V267.324C112.021 266.116 112.981 265.116 114.277 265.116C115.573 265.116 116.525 266.1 116.525 267.308V267.324C116.525 268.524 115.565 269.524 114.261 269.524ZM114.277 268.676C115.061 268.676 115.557 268.068 115.557 267.34V267.324C115.557 266.58 115.021 265.964 114.261 265.964C113.485 265.964 112.989 266.572 112.989 267.308V267.324C112.989 268.06 113.525 268.676 114.277 268.676ZM118.926 269.5C118.214 269.5 117.71 269.188 117.71 268.26V266.036H117.55C117.318 266.036 117.134 265.852 117.134 265.62C117.134 265.388 117.318 265.204 117.55 265.204H117.71V264.484C117.71 264.22 117.926 264.004 118.198 264.004C118.462 264.004 118.678 264.22 118.678 264.484V265.204H119.438C119.67 265.204 119.862 265.388 119.862 265.62C119.862 265.852 119.67 266.036 119.438 266.036H118.678V268.108C118.678 268.484 118.87 268.636 119.198 268.636C119.31 268.636 119.406 268.612 119.438 268.612C119.654 268.612 119.846 268.788 119.846 269.012C119.846 269.188 119.726 269.332 119.59 269.388C119.382 269.46 119.182 269.5 118.926 269.5ZM122.015 269.516C121.223 269.516 120.519 269.06 120.519 268.212V268.196C120.519 267.284 121.231 266.836 122.263 266.836C122.735 266.836 123.071 266.908 123.399 267.012V266.908C123.399 266.308 123.031 265.988 122.351 265.988C121.983 265.988 121.679 266.052 121.415 266.156C121.359 266.172 121.311 266.18 121.263 266.18C121.039 266.18 120.855 266.004 120.855 265.78C120.855 265.604 120.975 265.452 121.119 265.396C121.519 265.244 121.927 265.148 122.479 265.148C123.111 265.148 123.583 265.316 123.879 265.62C124.191 265.924 124.335 266.372 124.335 266.924V269.004C124.335 269.268 124.127 269.468 123.863 269.468C123.583 269.468 123.391 269.276 123.391 269.06V268.9C123.103 269.244 122.663 269.516 122.015 269.516ZM122.287 268.812C122.927 268.812 123.415 268.444 123.415 267.908V267.62C123.167 267.524 122.839 267.452 122.455 267.452C121.831 267.452 121.463 267.716 121.463 268.156V268.172C121.463 268.58 121.823 268.812 122.287 268.812ZM125.551 268.988V264.028C125.551 263.764 125.759 263.548 126.031 263.548C126.303 263.548 126.519 263.764 126.519 264.028V268.988C126.519 269.26 126.303 269.468 126.031 269.468C125.767 269.468 125.551 269.26 125.551 268.988ZM130.79 269.428C130.51 269.428 130.294 269.212 130.294 268.932V264.324C130.294 264.044 130.51 263.828 130.79 263.828H134.046C134.286 263.828 134.486 264.028 134.486 264.268C134.486 264.516 134.286 264.708 134.046 264.708H131.278V266.164H133.686C133.926 266.164 134.126 266.364 134.126 266.612C134.126 266.852 133.926 267.044 133.686 267.044H131.278V268.548H134.086C134.326 268.548 134.526 268.748 134.526 268.988C134.526 269.236 134.326 269.428 134.086 269.428H130.79ZM135.318 269.06C135.318 268.924 135.366 268.82 135.454 268.724L136.654 267.284L135.542 265.964C135.438 265.836 135.382 265.724 135.382 265.596C135.382 265.324 135.59 265.148 135.83 265.148C136.022 265.148 136.158 265.236 136.278 265.388L137.23 266.636L138.198 265.396C138.31 265.252 138.446 265.148 138.614 265.148C138.87 265.148 139.07 265.332 139.07 265.572C139.07 265.708 139.014 265.804 138.934 265.9L137.79 267.268L138.974 268.668C139.078 268.796 139.134 268.908 139.134 269.036C139.134 269.308 138.926 269.484 138.686 269.484C138.494 269.484 138.358 269.396 138.238 269.236L137.214 267.916L136.19 269.236C136.078 269.372 135.942 269.484 135.766 269.484C135.518 269.484 135.318 269.3 135.318 269.06ZM140.128 270.268V265.644C140.128 265.372 140.336 265.156 140.608 265.156C140.88 265.156 141.096 265.372 141.096 265.644V265.908C141.408 265.468 141.848 265.116 142.536 265.116C143.528 265.116 144.496 265.9 144.496 267.308V267.324C144.496 268.724 143.536 269.516 142.536 269.516C141.832 269.516 141.392 269.164 141.096 268.772V270.268C141.096 270.54 140.88 270.748 140.608 270.748C140.344 270.748 140.128 270.54 140.128 270.268ZM142.304 268.676C142.968 268.676 143.512 268.156 143.512 267.324V267.308C143.512 266.492 142.96 265.956 142.304 265.956C141.648 265.956 141.072 266.5 141.072 267.308V267.324C141.072 268.132 141.648 268.676 142.304 268.676ZM146.223 267.02H148.391C148.327 266.396 147.959 265.908 147.319 265.908C146.727 265.908 146.311 266.364 146.223 267.02ZM148.951 268.964C148.567 269.308 148.087 269.524 147.431 269.524C146.207 269.524 145.263 268.636 145.263 267.332V267.316C145.263 266.108 146.119 265.116 147.327 265.116C148.671 265.116 149.335 266.22 149.335 267.196C149.335 267.468 149.127 267.66 148.879 267.66H146.231C146.335 268.348 146.823 268.732 147.447 268.732C147.855 268.732 148.175 268.588 148.447 268.364C148.519 268.308 148.583 268.276 148.695 268.276C148.911 268.276 149.079 268.444 149.079 268.668C149.079 268.788 149.023 268.892 148.951 268.964ZM150.323 268.988V265.644C150.323 265.372 150.531 265.156 150.803 265.156C151.075 265.156 151.291 265.372 151.291 265.644V265.852C151.563 265.46 151.955 265.116 152.611 265.116C153.563 265.116 154.115 265.756 154.115 266.732V268.988C154.115 269.26 153.907 269.468 153.635 269.468C153.363 269.468 153.147 269.26 153.147 268.988V267.028C153.147 266.372 152.819 265.996 152.243 265.996C151.683 265.996 151.291 266.388 151.291 267.044V268.988C151.291 269.26 151.075 269.468 150.803 269.468C150.539 269.468 150.323 269.26 150.323 268.988ZM156.732 269.508C156.196 269.508 155.612 269.34 155.124 269.004C155.02 268.948 154.94 268.828 154.94 268.668C154.94 268.452 155.108 268.276 155.332 268.276C155.412 268.276 155.484 268.3 155.54 268.332C155.948 268.604 156.372 268.74 156.756 268.74C157.172 268.74 157.412 268.564 157.412 268.284V268.268C157.412 267.94 156.964 267.828 156.468 267.676C155.844 267.5 155.148 267.244 155.148 266.436V266.42C155.148 265.62 155.812 265.132 156.652 265.132C157.1 265.132 157.572 265.26 157.98 265.476C158.116 265.548 158.212 265.676 158.212 265.844C158.212 266.068 158.036 266.236 157.812 266.236C157.732 266.236 157.684 266.22 157.62 266.188C157.276 266.012 156.924 265.9 156.628 265.9C156.252 265.9 156.036 266.076 156.036 266.316V266.332C156.036 266.644 156.492 266.772 156.988 266.932C157.604 267.124 158.3 267.404 158.3 268.164V268.18C158.3 269.068 157.612 269.508 156.732 269.508ZM160.02 267.02H162.188C162.124 266.396 161.756 265.908 161.116 265.908C160.524 265.908 160.108 266.364 160.02 267.02ZM162.748 268.964C162.364 269.308 161.884 269.524 161.228 269.524C160.004 269.524 159.06 268.636 159.06 267.332V267.316C159.06 266.108 159.916 265.116 161.124 265.116C162.468 265.116 163.132 266.22 163.132 267.196C163.132 267.468 162.924 267.66 162.676 267.66H160.028C160.132 268.348 160.62 268.732 161.244 268.732C161.652 268.732 161.972 268.588 162.244 268.364C162.316 268.308 162.38 268.276 162.492 268.276C162.708 268.276 162.876 268.444 162.876 268.668C162.876 268.788 162.82 268.892 162.748 268.964Z" fill="white"/>
<path d="M181.393 268.98V264.74H180.033C179.777 264.74 179.577 264.532 179.577 264.284C179.577 264.036 179.777 263.828 180.033 263.828H183.753C184.001 263.828 184.201 264.036 184.201 264.284C184.201 264.532 184.001 264.74 183.753 264.74H182.385V268.98C182.385 269.252 182.161 269.468 181.889 269.468C181.617 269.468 181.393 269.252 181.393 268.98ZM186.186 269.524C184.898 269.524 183.946 268.54 183.946 267.34V267.324C183.946 266.116 184.906 265.116 186.202 265.116C187.498 265.116 188.45 266.1 188.45 267.308V267.324C188.45 268.524 187.49 269.524 186.186 269.524ZM186.202 268.676C186.986 268.676 187.482 268.068 187.482 267.34V267.324C187.482 266.58 186.946 265.964 186.186 265.964C185.41 265.964 184.914 266.572 184.914 267.308V267.324C184.914 268.06 185.45 268.676 186.202 268.676ZM190.852 269.5C190.14 269.5 189.636 269.188 189.636 268.26V266.036H189.476C189.244 266.036 189.06 265.852 189.06 265.62C189.06 265.388 189.244 265.204 189.476 265.204H189.636V264.484C189.636 264.22 189.852 264.004 190.124 264.004C190.388 264.004 190.604 264.22 190.604 264.484V265.204H191.364C191.596 265.204 191.788 265.388 191.788 265.62C191.788 265.852 191.596 266.036 191.364 266.036H190.604V268.108C190.604 268.484 190.796 268.636 191.124 268.636C191.236 268.636 191.332 268.612 191.364 268.612C191.58 268.612 191.772 268.788 191.772 269.012C191.772 269.188 191.652 269.332 191.516 269.388C191.308 269.46 191.108 269.5 190.852 269.5ZM193.941 269.516C193.149 269.516 192.445 269.06 192.445 268.212V268.196C192.445 267.284 193.157 266.836 194.189 266.836C194.661 266.836 194.997 266.908 195.325 267.012V266.908C195.325 266.308 194.957 265.988 194.277 265.988C193.909 265.988 193.605 266.052 193.341 266.156C193.285 266.172 193.237 266.18 193.189 266.18C192.965 266.18 192.781 266.004 192.781 265.78C192.781 265.604 192.901 265.452 193.045 265.396C193.445 265.244 193.853 265.148 194.405 265.148C195.037 265.148 195.509 265.316 195.805 265.62C196.117 265.924 196.261 266.372 196.261 266.924V269.004C196.261 269.268 196.053 269.468 195.789 269.468C195.509 269.468 195.317 269.276 195.317 269.06V268.9C195.029 269.244 194.589 269.516 193.941 269.516ZM194.213 268.812C194.853 268.812 195.341 268.444 195.341 267.908V267.62C195.093 267.524 194.765 267.452 194.381 267.452C193.757 267.452 193.389 267.716 193.389 268.156V268.172C193.389 268.58 193.749 268.812 194.213 268.812ZM197.477 268.988V264.028C197.477 263.764 197.685 263.548 197.957 263.548C198.229 263.548 198.445 263.764 198.445 264.028V268.988C198.445 269.26 198.229 269.468 197.957 269.468C197.693 269.468 197.477 269.26 197.477 268.988ZM204.18 269.508C203.42 269.508 202.7 269.268 202.076 268.804C201.964 268.724 201.884 268.588 201.884 268.428C201.884 268.172 202.092 267.972 202.348 267.972C202.484 267.972 202.572 268.012 202.636 268.06C203.1 268.428 203.596 268.636 204.204 268.636C204.812 268.636 205.196 268.348 205.196 267.932V267.916C205.196 267.516 204.972 267.3 203.932 267.06C202.74 266.772 202.068 266.42 202.068 265.388V265.372C202.068 264.412 202.868 263.748 203.98 263.748C204.684 263.748 205.252 263.932 205.756 264.268C205.868 264.332 205.972 264.468 205.972 264.66C205.972 264.916 205.764 265.116 205.508 265.116C205.412 265.116 205.332 265.092 205.252 265.044C204.82 264.764 204.404 264.62 203.964 264.62C203.388 264.62 203.052 264.916 203.052 265.284V265.3C203.052 265.732 203.308 265.924 204.388 266.18C205.572 266.468 206.18 266.892 206.18 267.82V267.836C206.18 268.884 205.356 269.508 204.18 269.508ZM208.441 269.516C207.649 269.516 206.945 269.06 206.945 268.212V268.196C206.945 267.284 207.657 266.836 208.689 266.836C209.161 266.836 209.497 266.908 209.825 267.012V266.908C209.825 266.308 209.457 265.988 208.777 265.988C208.409 265.988 208.105 266.052 207.841 266.156C207.785 266.172 207.737 266.18 207.689 266.18C207.465 266.18 207.281 266.004 207.281 265.78C207.281 265.604 207.401 265.452 207.545 265.396C207.945 265.244 208.353 265.148 208.905 265.148C209.537 265.148 210.009 265.316 210.305 265.62C210.617 265.924 210.761 266.372 210.761 266.924V269.004C210.761 269.268 210.553 269.468 210.289 269.468C210.009 269.468 209.817 269.276 209.817 269.06V268.9C209.529 269.244 209.089 269.516 208.441 269.516ZM208.713 268.812C209.353 268.812 209.841 268.444 209.841 267.908V267.62C209.593 267.524 209.265 267.452 208.881 267.452C208.257 267.452 207.889 267.716 207.889 268.156V268.172C207.889 268.58 208.249 268.812 208.713 268.812ZM211.977 268.988V264.028C211.977 263.764 212.185 263.548 212.457 263.548C212.729 263.548 212.945 263.764 212.945 264.028V268.988C212.945 269.26 212.729 269.468 212.457 269.468C212.193 269.468 211.977 269.26 211.977 268.988ZM214.938 267.02H217.106C217.042 266.396 216.674 265.908 216.034 265.908C215.442 265.908 215.026 266.364 214.938 267.02ZM217.666 268.964C217.282 269.308 216.802 269.524 216.146 269.524C214.922 269.524 213.978 268.636 213.978 267.332V267.316C213.978 266.108 214.834 265.116 216.042 265.116C217.386 265.116 218.05 266.22 218.05 267.196C218.05 267.468 217.842 267.66 217.594 267.66H214.946C215.05 268.348 215.538 268.732 216.162 268.732C216.57 268.732 216.89 268.588 217.162 268.364C217.234 268.308 217.298 268.276 217.41 268.276C217.626 268.276 217.794 268.444 217.794 268.668C217.794 268.788 217.738 268.892 217.666 268.964Z" fill="white"/>
<circle cx="23.4751" cy="267.428" r="3.46338" fill="url(#paint8_linear_67_2145)"/>
<circle cx="99.9048" cy="267.428" r="3.46338" fill="url(#paint9_linear_67_2145)"/>
<circle cx="171.834" cy="267.428" r="3.46338" fill="url(#paint10_linear_67_2145)"/>
<path d="M114.207 217.677C113.079 217.677 112.238 217.087 112.238 216.195V216.18C112.238 215.561 112.585 215.17 113.167 214.927C112.732 214.699 112.415 214.352 112.415 213.777V213.762C112.415 212.974 113.174 212.369 114.207 212.369C115.239 212.369 115.998 212.966 115.998 213.762V213.777C115.998 214.352 115.681 214.699 115.246 214.927C115.814 215.185 116.175 215.554 116.175 216.166V216.18C116.175 217.102 115.334 217.677 114.207 217.677ZM114.207 214.625C114.737 214.625 115.128 214.308 115.128 213.866V213.851C115.128 213.453 114.759 213.128 114.207 213.128C113.654 213.128 113.285 213.453 113.285 213.843V213.858C113.285 214.308 113.676 214.625 114.207 214.625ZM114.207 216.918C114.885 216.918 115.29 216.571 115.29 216.143V216.129C115.29 215.657 114.818 215.347 114.207 215.347C113.595 215.347 113.13 215.657 113.13 216.129V216.143C113.13 216.564 113.528 216.918 114.207 216.918Z" fill="white"/>
<path d="M118.85 217.677C117.722 217.677 116.882 217.087 116.882 216.195V216.18C116.882 215.561 117.228 215.17 117.81 214.927C117.376 214.699 117.059 214.352 117.059 213.777V213.762C117.059 212.974 117.818 212.369 118.85 212.369C119.882 212.369 120.641 212.966 120.641 213.762V213.777C120.641 214.352 120.324 214.699 119.889 214.927C120.457 215.185 120.818 215.554 120.818 216.166V216.18C120.818 217.102 119.978 217.677 118.85 217.677ZM118.85 214.625C119.381 214.625 119.771 214.308 119.771 213.866V213.851C119.771 213.453 119.403 213.128 118.85 213.128C118.297 213.128 117.928 213.453 117.928 213.843V213.858C117.928 214.308 118.319 214.625 118.85 214.625ZM118.85 216.918C119.528 216.918 119.934 216.571 119.934 216.143V216.129C119.934 215.657 119.462 215.347 118.85 215.347C118.238 215.347 117.774 215.657 117.774 216.129V216.143C117.774 216.564 118.172 216.918 118.85 216.918Z" fill="white"/>
<path d="M122.734 215.023C122.012 215.023 121.525 214.426 121.525 213.718V213.703C121.525 212.981 122.019 212.384 122.749 212.384C123.479 212.384 123.958 212.981 123.958 213.689V213.703C123.958 214.418 123.471 215.023 122.734 215.023ZM122.306 217.352C122.306 217.279 122.336 217.212 122.373 217.161L125.756 212.539C125.808 212.45 125.904 212.406 126.007 212.406C126.169 212.406 126.302 212.531 126.302 212.693C126.302 212.767 126.272 212.834 126.236 212.885L122.852 217.507C122.793 217.596 122.697 217.64 122.594 217.64C122.432 217.64 122.306 217.515 122.306 217.352ZM125.852 217.662C125.13 217.662 124.643 217.065 124.643 216.357V216.343C124.643 215.62 125.137 215.023 125.867 215.023C126.589 215.023 127.076 215.62 127.076 216.328V216.343C127.076 217.058 126.582 217.662 125.852 217.662ZM122.749 214.455C123.095 214.455 123.302 214.116 123.302 213.718V213.703C123.302 213.291 123.066 212.952 122.734 212.952C122.388 212.952 122.181 213.291 122.181 213.689V213.703C122.181 214.124 122.417 214.455 122.749 214.455ZM125.867 217.094C126.213 217.094 126.42 216.755 126.42 216.357V216.343C126.42 215.93 126.184 215.591 125.852 215.591C125.506 215.591 125.299 215.93 125.299 216.328V216.343C125.299 216.763 125.535 217.094 125.867 217.094Z" fill="white"/>
<defs>
<filter id="filter0_bd_67_2145" x="-5.34375" y="-5.62305" width="250" height="336" filterUnits="userSpaceOnUse" color-interpolation-filters="sRGB">
<feFlood flood-opacity="0" result="BackgroundImageFix"/>
<feGaussianBlur in="BackgroundImageFix" stdDeviation="7"/>
<feComposite in2="SourceAlpha" operator="in" result="effect1_backgroundBlur_67_2145"/>
<feColorMatrix in="SourceAlpha" type="matrix" values="0 0 0 0 0 0 0 0 0 0 0 0 0 0 0 0 0 0 127 0" result="hardAlpha"/>
<feOffset/>
<feGaussianBlur stdDeviation="4"/>
<feComposite in2="hardAlpha" operator="out"/>
<feColorMatrix type="matrix" values="0 0 0 0 0.294118 0 0 0 0 0.298039 0 0 0 0 1 0 0 0 1 0"/>
<feBlend mode="normal" in2="effect1_backgroundBlur_67_2145" result="effect2_dropShadow_67_2145"/>
<feBlend mode="normal" in="SourceGraphic" in2="effect2_dropShadow_67_2145" result="shape"/>
</filter>
<linearGradient id="paint0_linear_67_2145" x1="8.65625" y1="162.377" x2="230.656" y2="162.377" gradientUnits="userSpaceOnUse">
<stop stop-color="#7670FF"/>
<stop offset="1" stop-color="#5B42FF"/>
</linearGradient>
<linearGradient id="paint1_linear_67_2145" x1="8.65625" y1="162.377" x2="230.656" y2="162.377" gradientUnits="userSpaceOnUse">
<stop stop-color="#7670FF"/>
<stop offset="1" stop-color="#5B42FF"/>
</linearGradient>
<linearGradient id="paint2_linear_67_2145" x1="119.656" y1="260.465" x2="59.7181" y2="114.031" gradientUnits="userSpaceOnUse">
<stop stop-color="#F800C0"/>
<stop offset="1" stop-color="#FE8A70"/>
</linearGradient>
<linearGradient id="paint3_linear_67_2145" x1="119.656" y1="260.465" x2="59.7181" y2="114.031" gradientUnits="userSpaceOnUse">
<stop stop-color="#F800C0"/>
<stop offset="1" stop-color="#FE8A70"/>
</linearGradient>
<linearGradient id="paint4_linear_67_2145" x1="119.655" y1="223.405" x2="81.2545" y2="129.589" gradientUnits="userSpaceOnUse">
<stop stop-color="#F800C0"/>
<stop offset="1" stop-color="#FE8A70"/>
</linearGradient>
<linearGradient id="paint5_linear_67_2145" x1="119.655" y1="223.405" x2="81.2545" y2="129.589" gradientUnits="userSpaceOnUse">
<stop stop-color="#F800C0"/>
<stop offset="1" stop-color="#FE8A70"/>
</linearGradient>
<linearGradient id="paint6_linear_67_2145" x1="119.657" y1="196.419" x2="96.9393" y2="140.918" gradientUnits="userSpaceOnUse">
<stop stop-color="#F800C0"/>
<stop offset="1" stop-color="#FE8A70"/>
</linearGradient>
<linearGradient id="paint7_linear_67_2145" x1="119.657" y1="196.419" x2="96.9393" y2="140.918" gradientUnits="userSpaceOnUse">
<stop stop-color="#F800C0"/>
<stop offset="1" stop-color="#FE8A70"/>
</linearGradient>
<linearGradient id="paint8_linear_67_2145" x1="20.0117" y1="270.892" x2="22.9163" y2="263.962" gradientUnits="userSpaceOnUse">
<stop stop-color="#F800C0"/>
<stop offset="1" stop-color="#FE8A70"/>
</linearGradient>
<linearGradient id="paint9_linear_67_2145" x1="96.4414" y1="270.892" x2="99.346" y2="263.962" gradientUnits="userSpaceOnUse">
<stop stop-color="#F800C0"/>
<stop offset="1" stop-color="#FE8A70"/>
</linearGradient>
<linearGradient id="paint10_linear_67_2145" x1="168.371" y1="270.892" x2="171.276" y2="263.962" gradientUnits="userSpaceOnUse">
<stop stop-color="#F800C0"/>
<stop offset="1" stop-color="#FE8A70"/>
</linearGradient>
</defs>
</svg>
